<?xml version="1.0" encoding="utf-8"?>
<!-- Generator: Adobe Illustrator 19.0.0, SVG Export Plug-In . SVG Version: 6.00 Build 0)  -->
<svg version="1.1" id="Layer_1" xmlns="http://www.w3.org/2000/svg" xmlns:xlink="http://www.w3.org/1999/xlink" x="0px" y="0px"
	 viewBox="0 0 529.2 119.8" style="enable-background:new 0 0 529.2 119.8;" xml:space="preserve">
<style type="text/css">
	.st0{fill:#25275E;}
</style>
<g id="XMLID_2_">
	<path id="XMLID_23_" class="st0" d="M5.6,48.1c10.5,0,21-0.1,31.4,0c4.5,0,7.4-1.2,8.8-6.3c2.3-8.5,5.5-16.8,8.3-25.1
		c0.5-1.5,0.7-3.7,2.7-3.7c1.8-0.1,1.8,2.1,2.2,3.4c2.9,8.3,6,16.6,8.6,25c1.5,4.7,4,7,9.1,6.7c8.1-0.3,16.2-0.2,24.3,0
		c2.1,0,5.1-1.1,5.9,1.4c0.7,2.1-2.3,3-3.8,4.1c-6.5,4.9-12.8,9.9-19.6,14.2c-4.9,3.1-5.6,6.5-3.7,11.6c2.8,7.8,5.1,15.7,7.6,23.6
		c0.5,1.5,1.6,3.4,0,4.6c-1.6,1.2-3.1-0.4-4.4-1.3c-7.3-5.3-14.6-10.6-21.8-16c-2.6-2-5-2.6-7.9-0.4c-7.6,5.7-15.4,11.3-23.1,16.9
		c-1.2,0.9-2.2,3.2-4,1.7c-1.4-1.2-0.7-3.1-0.2-4.7c2.8-8.6,5.3-17.2,8.5-25.6c1.9-4.9,0.7-7.5-3.6-10.3C22.2,62.4,14,56.2,5.6,50.3
		C5.6,49.6,5.6,48.8,5.6,48.1z"/>
	<path id="XMLID_22_" class="st0" d="M529.2,50.3C518.9,56,510.1,64,500.3,70.5c-2.2,1.5-1.2,3.6-0.6,5.5c2.8,8.7,5.7,17.5,8.5,26.2
		c0.5,1.7,2,3.8,0.3,5.1c-1.7,1.2-3.3-0.9-4.8-1.9c-7.1-5-14.2-9.9-21-15.2c-3.4-2.6-6.1-2.3-9.4,0.1c-7.4,5.5-14.9,10.7-22.4,16
		c-1,0.7-2.1,2-3.4,1.2c-1.4-0.8-0.4-2.3-0.2-3.5c1.3-8.4,5-16.1,7.6-24.2c1.8-5.5,1.2-9.2-4-12.6c-6.9-4.5-13.4-9.7-20-14.7
		c-1.2-0.9-3.6-1.4-2.8-3.5c0.6-1.5,2.6-1,4-1c8.8-0.1,17.7-0.2,26.5,0c4.4,0.1,6.7-1.6,8-5.8c3.2-10.1,6.7-20.2,10.3-30.9
		c2.7,2.2,3.1,4.7,4,7c2.9,8.1,6,16.2,8.6,24.5c1.2,3.9,3.4,5.2,7.3,5.2c10.9-0.1,21.7,0.1,32.6,0.1
		C529.2,48.8,529.2,49.6,529.2,50.3z"/>
	<path id="XMLID_21_" class="st0" d="M214.3,49.4c-6.5,4.7-12.2,8.9-18,13c-13.9,9.6-14,9.6-8.7,25.5c1.5,4.7,3.2,9.4,4.9,14.1
		c0.6,1.7,1.8,3.9,0.4,5.2c-2,1.8-3.7-0.7-5.2-1.7c-7.1-4.9-14.1-9.9-21-15.2c-3-2.3-5.3-2.3-8.3,0c-7.2,5.4-14.6,10.6-22,15.7
		c-1.4,1-3.1,3-4.8,1.9c-1.8-1.2-0.3-3.5,0.2-5.1c2.4-7.7,4.9-15.4,7.6-23c1.8-5,1-8.6-3.8-11.7c-6.8-4.4-13.2-9.3-19.7-14.1
		c-1.4-1-3.9-1.7-3.3-3.9c0.7-2.5,3.4-1.7,5.3-1.7c8.3-0.1,16.6-0.2,24.8,0c4.5,0.1,7-1.5,8.4-6.1c2.6-8.8,5.8-17.4,8.8-26.1
		c0.4-1.2,0.5-2.9,2-3c1.9-0.2,2.1,1.7,2.6,3c3,8.7,6.3,17.3,8.9,26.1c1.4,4.6,3.8,6.1,8.3,6c8.5-0.2,16.9-0.1,25.4,0
		C209,48,211,47.7,214.3,49.4z"/>
	<path id="XMLID_20_" class="st0" d="M423.7,48.8c-5.1,7.2-12.4,10.3-18.5,14.9c-14.2,10.6-11.8,7-7.5,22c1.7,6,3.9,11.9,5.7,17.9
		c0.4,1.2,1.6,3-0.2,3.9c-1.2,0.7-2.5-0.4-3.5-1.2c-7.1-5-14.3-9.8-21.1-15.1c-4.4-3.5-7.8-3.2-12.1,0.3
		c-6.6,5.3-13.7,9.9-20.6,14.8c-1.1,0.8-2.2,2.5-3.8,1.2c-1.3-1.1-0.5-2.8-0.1-4.1c2.6-8,5-16.1,7.8-24.1c1.7-4.7,1.4-8.2-3.3-11.2
		c-7.1-4.6-13.8-9.8-20.6-14.8c-1.4-1-4-1.7-3.2-3.9c0.7-2,3.2-1.2,5-1.2c8.5-0.1,16.9-0.2,25.4,0c4.5,0.1,7-1.4,8.4-6
		c2.6-8.8,5.7-17.5,8.6-26.2c0.5-1.4,0.8-3.1,2.6-3.1c1.6,0.1,1.6,1.8,2,3c3,8.9,6.2,17.7,9.1,26.6c1.3,3.9,3.5,5.6,7.6,5.6
		c9.6-0.1,19.1,0,28.7,0.1C421.1,48.1,422,48.4,423.7,48.8z"/>
	<path id="XMLID_19_" class="st0" d="M236.1,48.1C254.3,48,254.3,48,260,30.9c1.7-5.1,3.4-10.1,5.1-15.2c0.4-1.1,0.5-2.8,2.1-2.8
		c1.6,0,1.8,1.7,2.2,2.8c3.2,9,6.6,18,9.4,27.1c1.3,4.3,3.7,5.3,7.7,5.2c8.8-0.1,17.7-0.1,26.5,0c1.6,0,3.8-0.6,4.5,1.1
		c0.8,2-1.6,2.5-2.8,3.4c-7.2,5.4-14.3,11-21.9,15.9c-4.2,2.7-4.4,5.6-3,9.7c2.8,8.2,5.5,16.4,8.1,24.6c0.5,1.5,1.9,3.4,0.4,4.6
		c-1.8,1.5-3.4-0.6-4.8-1.5c-7.3-5-14.6-10-21.6-15.3c-3.4-2.6-6.1-2.5-9.4,0c-7.2,5.4-14.6,10.6-22,15.8c-1.2,0.8-2.5,2.3-3.9,1.5
		c-1.9-1.2-0.3-3,0.1-4.4c2.6-8.4,5.1-16.9,8.1-25.2c1.6-4.6,0.8-7.4-3.5-10.1c-7.4-4.8-14.4-10.2-21.5-15.4
		c-1.1-0.8-2.9-1.5-2.3-3.3c0.6-1.7,2.5-1.2,3.9-1.2C226.5,48.1,231.3,48.1,236.1,48.1z"/>
</g>
</svg>
