<?xml version="1.0" encoding="utf-8"?>
<!-- Generator: Adobe Illustrator 19.0.0, SVG Export Plug-In . SVG Version: 6.00 Build 0)  -->
<svg version="1.1" id="Layer_1" xmlns="http://www.w3.org/2000/svg" xmlns:xlink="http://www.w3.org/1999/xlink" x="0px" y="0px"
	 viewBox="0 0 500 500" style="enable-background:new 0 0 500 500;" xml:space="preserve">
<style type="text/css">
	.st0{fill:#F8F8F8;}
	.st1{fill-rule:evenodd;clip-rule:evenodd;fill:#26265E;}
</style>
<path id="XMLID_20_" class="st0" d="M245.5,41c57.7,0,110,23.4,147.9,61.3c37.8,37.9,61.2,90.1,61.2,147.8s-23.4,110-61.2,147.9
	c-37.9,37.8-90.2,61.2-147.9,61.2s-109.9-23.4-147.8-61.2C59.8,360,36.4,307.7,36.4,250s23.4-109.9,61.3-147.8
	C135.5,64.4,187.8,41,245.5,41L245.5,41z"/>
<path id="XMLID_17_" class="st1" d="M383,395.1c-35.8,34-84.2,54.8-137.5,54.8c-45,0-86.6-14.9-120.1-40c-0.9-5.2-1.6-10.6-1.6-16
	c0-56.8,58-102.8,129.6-102.8c71.7,0,129.6,46,129.6,102.8C383,394.3,383,394.7,383,395.1L383,395.1z M253.4,113.2
	c42.6,0,77.1,34.4,77.1,77.1c0,42.5-34.4,77-77.1,77c-42.5,0-77-34.4-77-77C176.4,147.7,210.8,113.2,253.4,113.2L253.4,113.2z"/>
</svg>
