<?xml version="1.0" encoding="utf-8"?>
<!-- Generator: Adobe Illustrator 19.0.0, SVG Export Plug-In . SVG Version: 6.00 Build 0)  -->
<svg version="1.1" xmlns="http://www.w3.org/2000/svg" xmlns:xlink="http://www.w3.org/1999/xlink" x="0px" y="0px"
	 viewBox="0 0 100 100" style="enable-background:new 0 0 100 100;" xml:space="preserve">
<style type="text/css">
	.st0{fill:#F8F8F8;}
</style>
<g id="Layer_2">
</g>
<g id="Layer_1">
	<g id="XMLID_1_">
		<path id="XMLID_31_" class="st0" d="M86.4,50.1c1.4,19.2-16.8,38.1-38.6,36.7c-15-0.9-36.5-14.4-34.1-41
			C15.1,31,29.6,12.2,52.8,13.6C69.8,14.7,87.4,30.2,86.4,50.1z M49.4,57.3c-2.7-0.2-7.2,1.1-11.3,3.5c-5.8,3.4-9.4,8.2-9.3,15.2
			c0,1,0.7,2.4,1.6,3c6.6,4.6,14,6.5,22,6c7.3-0.4,13.8-3.2,19.7-7.7c1.7-1.3,2.3-2.8,1.8-4.7c-0.5-1.7-1-3.5-2-5
			C67.1,60.3,60,57.5,49.4,57.3z M38,39.1c-0.8,6,4.7,14.6,14.2,14.1c6.1-0.3,12.3-5.7,12.7-12.9c0.3-5.5-3.3-13.3-13-14
			C44.7,25.9,38.3,31.7,38,39.1z"/>
	</g>
</g>
</svg>
