<?xml version="1.0" encoding="utf-8"?>
<!-- Generator: Adobe Illustrator 19.0.0, SVG Export Plug-In . SVG Version: 6.00 Build 0)  -->
<svg version="1.1" xmlns="http://www.w3.org/2000/svg" xmlns:xlink="http://www.w3.org/1999/xlink" x="0px" y="0px"
	 viewBox="0 0 500 500" style="enable-background:new 0 0 500 500;" xml:space="preserve">
<style type="text/css">
	.st0{display:none;}
	.st1{display:inline;}
	.st2{fill:#FFFFFF;}
	.st3{fill:#26265E;}
	.st4{fill:#F8F8F8;}
	.st5{fill:#26265E;stroke:#F8F8F8;stroke-width:12;stroke-miterlimit:10;}
	.st6{fill:#F8F8F8;stroke:#F8F8F8;stroke-width:12;stroke-miterlimit:10;}
</style>
<g id="Layer_1" class="st0">
	<g id="XMLID_10_" class="st1">
		<path id="XMLID_147_" class="st2" d="M406.6,477.8c-127.9,0-255.9,0-383.9,0c0-128,0-255.9,0-383.9c127.9,0,255.8,0,383.9,0
			C406.6,221.7,406.6,349.7,406.6,477.8z M354.5,157.6c4-1.4,7.5-2.6,11-3.8c4.9-1.8,5.8-4.2,4.6-9.3c-2.9-12.3-8.4-22.8-18.6-30.6
			c-1.8-1.4-3.2-3.2-4.8-4.7c-4.8-4.8-7.2-4.8-11.9-0.1c-52,52-103.9,103.9-155.9,155.9c-0.8,0.8-1.7,1.5-2.3,2.5
			c-1.7,2.6-1.5,5.2,0.7,7.5c2.2,2.3,4.8,2.6,7.5,0.9c1.2-0.8,2.3-2,3.3-3c49.8-49.7,99.5-99.5,149.3-149.3c1-1,2.1-2,3.3-3.2
			c6.9,6.9,15.2,12.4,15.8,23.6c-3.4,1.2-7.1,2.4-10.7,3.6c-4.7,1.7-6,4.2-4.5,9c1.1,3.7,2.3,7.3,3.6,11.2
			c-3.9,1.3-7.6,2.5-11.2,3.8c-4.7,1.7-5.9,4.2-4.4,9c1.1,3.7,2.3,7.3,3.6,11.2c-3.9,1.3-7.6,2.5-11.2,3.8c-4.7,1.7-5.9,4.2-4.4,9
			c1.1,3.6,2.3,7.3,3.6,11.2c-3.6,1.2-6.9,2.3-10.2,3.4c-5.8,1.9-7.1,4.4-5.2,10.2c1.1,3.4,2.2,6.8,3.4,10.4
			c-3.9,1.3-7.4,2.5-10.9,3.7c-5,1.7-6.2,4.2-4.7,9.2c1.1,3.6,2.3,7.3,3.6,11.1c-3.9,1.3-7.4,2.5-10.9,3.7c-5,1.7-6.2,4.2-4.6,9.2
			c1.1,3.6,2.3,7.3,3.5,10.8c-0.5,0.4-0.7,0.6-1,0.7c-3.3,1.1-6.6,2.2-9.9,3.4c-4.9,1.7-6.2,4.2-4.6,9.2c1.1,3.6,2.3,7.3,3.5,10.8
			c-0.6,0.4-0.8,0.6-1,0.7c-3.3,1.1-6.6,2.2-9.9,3.4c-4.9,1.7-6.2,4.2-4.6,9.2c1.1,3.6,2.3,7.2,3.5,11c-3.9,1.3-7.5,2.5-11,3.7
			c-4.9,1.7-6.1,4.2-4.5,9.2c1.1,3.6,2.3,7.2,3.5,11c-3.5,1.2-6.6,2.2-9.6,3.2c-6.5,2.1-7.7,4.5-5.6,10.9c0.8,2.5,1.6,4.9,2.5,7.5
			c-5.4,0-10.3,0-15.5,0c0-11.6,0.1-23-0.1-34.3c0-2.1-0.9-4.8-2.3-6.3c-19.4-19.7-39-39.2-58.5-58.7c-3.5-3.5-6.6-3.5-10.1,0
			c-29.5,29.5-59.1,59-88.5,88.6c-1.2,1.2-2.3,3.2-2.3,4.8c-0.2,10.1-0.2,20.2-0.1,30.4c0,3.4,2.3,5.5,5.7,5.7
			c1.7,0.1,3.5,0.1,5.2,0.1c12.2-0.2,22,3.9,30.3,13.4c9.4,10.7,19.8,20.5,30,30.4c14.2,13.9,35.4,13.8,49.5-0.1
			c12.9-12.7,25.7-25.6,38.4-38.5c1.5-1.6,2.5-4.3,2.7-6.5c0.4-5.4,0.1-10.9,0.1-16.7c7.9,0,15.4,0,22.8,0c5.9,0,8.3-3.4,6.5-9.1
			c-1.1-3.6-2.3-7.2-3.5-11c3.4-1.1,6.3-2.2,9.3-3.1c7-2.3,8.1-4.5,5.8-11.3c-1-3-2-6.1-3.1-9.5c3.9-1.3,7.5-2.6,11.1-3.8
			c4.7-1.7,6-4.2,4.5-9c-1.1-3.7-2.4-7.3-3.5-10.8c0.4-0.4,0.6-0.6,0.8-0.7c3.4-1.2,6.8-2.3,10.2-3.6c4.7-1.7,5.9-4.2,4.4-9
			c-1.1-3.6-2.3-7.3-3.6-11.1c3.3-1.1,6.2-2.1,9.1-3.1c7.3-2.5,8.3-4.4,5.9-11.6c-1-3-2-6.1-3-9.3c3.9-1.3,7.4-2.5,10.9-3.8
			c4.9-1.7,6.2-4.3,4.6-9.2c-1.1-3.6-2.3-7.2-3.5-11c2.2-0.8,4-1.4,5.7-2c1.8-0.6,3.5-1.2,5.3-1.8c4.9-1.8,6.1-4.2,4.5-9.3
			c-1.1-3.5-2.3-7.1-3.5-10.9c3.9-1.3,7.5-2.6,11.1-3.9c4.7-1.7,6-4.2,4.5-9c-1.1-3.7-2.3-7.3-3.6-11.2c3.9-1.4,7.6-2.6,11.2-3.9
			c4.7-1.7,5.9-4.2,4.4-9c-1.1-3.6-2.3-7.3-3.6-11.1c4-1.4,7.7-2.6,11.3-3.9c4.5-1.6,5.8-4.2,4.4-8.7
			C357,165.3,355.8,161.7,354.5,157.6z"/>
		<path id="XMLID_144_" d="M354.5,157.6c1.3,4,2.5,7.7,3.7,11.4c1.4,4.5,0.1,7.1-4.4,8.7c-3.6,1.3-7.3,2.5-11.3,3.9
			c1.2,3.8,2.4,7.4,3.6,11.1c1.5,4.8,0.3,7.4-4.4,9c-3.6,1.3-7.3,2.5-11.2,3.9c1.2,3.9,2.4,7.5,3.6,11.2c1.5,4.8,0.2,7.3-4.5,9
			c-3.6,1.3-7.3,2.5-11.1,3.9c1.2,3.8,2.4,7.3,3.5,10.9c1.6,5,0.4,7.5-4.5,9.3c-1.8,0.6-3.5,1.2-5.3,1.8c-1.8,0.6-3.5,1.2-5.7,2
			c1.2,3.7,2.4,7.3,3.5,11c1.6,5,0.3,7.5-4.6,9.2c-3.5,1.2-7,2.4-10.9,3.8c1,3.2,2,6.3,3,9.3c2.4,7.2,1.4,9.1-5.9,11.6
			c-2.9,1-5.9,2-9.1,3.1c1.2,3.8,2.4,7.5,3.6,11.1c1.5,4.8,0.3,7.3-4.4,9c-3.4,1.2-6.8,2.4-10.2,3.6c-0.2,0.1-0.4,0.3-0.8,0.7
			c1.1,3.5,2.4,7.2,3.5,10.8c1.5,4.7,0.2,7.3-4.5,9c-3.6,1.3-7.3,2.5-11.1,3.8c1.1,3.4,2.1,6.4,3.1,9.5c2.3,6.9,1.2,9-5.8,11.3
			c-2.9,1-5.9,2-9.3,3.1c1.2,3.8,2.4,7.4,3.5,11c1.8,5.8-0.5,9.1-6.5,9.1c-7.5,0-14.9,0-22.8,0c0,5.8,0.3,11.3-0.1,16.7
			c-0.2,2.3-1.1,5-2.7,6.5c-12.7,13-25.5,25.8-38.4,38.5c-14.1,13.9-35.2,14-49.5,0.1c-10.2-9.9-20.6-19.8-30-30.4
			c-8.3-9.4-18.1-13.6-30.3-13.4c-1.7,0-3.5,0-5.2-0.1c-3.4-0.2-5.7-2.3-5.7-5.7c-0.1-10.1-0.1-20.2,0.1-30.4c0-1.6,1.1-3.6,2.3-4.8
			c29.5-29.6,59-59.1,88.5-88.6c3.5-3.5,6.5-3.5,10.1,0c19.6,19.5,39.1,39,58.5,58.7c1.5,1.5,2.3,4.2,2.3,6.3
			c0.2,11.3,0.1,22.7,0.1,34.3c5.2,0,10.1,0,15.5,0c-0.9-2.6-1.7-5.1-2.5-7.5c-2.1-6.4-0.9-8.8,5.6-10.9c3.1-1,6.1-2,9.6-3.2
			c-1.2-3.8-2.4-7.4-3.5-11c-1.6-5-0.4-7.5,4.5-9.2c3.5-1.2,7.1-2.4,11-3.7c-1.2-3.8-2.4-7.4-3.5-11c-1.6-5-0.3-7.5,4.6-9.2
			c3.3-1.2,6.6-2.3,9.9-3.4c0.2-0.1,0.4-0.3,1-0.7c-1.1-3.5-2.3-7.1-3.5-10.8c-1.6-5-0.3-7.5,4.6-9.2c3.3-1.2,6.6-2.3,9.9-3.4
			c0.2-0.1,0.4-0.3,1-0.7c-1.1-3.5-2.3-7.1-3.5-10.8c-1.6-5-0.3-7.4,4.6-9.2c3.5-1.2,7-2.4,10.9-3.7c-1.2-3.8-2.4-7.5-3.6-11.1
			c-1.6-4.9-0.3-7.4,4.7-9.2c3.5-1.2,7-2.4,10.9-3.7c-1.2-3.6-2.3-7-3.4-10.4c-1.9-5.8-0.6-8.2,5.2-10.2c3.3-1.1,6.6-2.2,10.2-3.4
			c-1.3-3.9-2.5-7.6-3.6-11.2c-1.5-4.8-0.3-7.4,4.4-9c3.6-1.3,7.3-2.5,11.2-3.8c-1.3-3.9-2.5-7.5-3.6-11.2c-1.5-4.8-0.3-7.3,4.4-9
			c3.6-1.3,7.3-2.5,11.2-3.8c-1.3-3.9-2.5-7.6-3.6-11.2c-1.5-4.8-0.2-7.3,4.5-9c3.6-1.3,7.3-2.5,10.7-3.6
			c-0.6-11.2-8.9-16.7-15.8-23.6c-1.2,1.1-2.3,2.1-3.3,3.2c-49.8,49.8-99.5,99.5-149.3,149.3c-1.1,1.1-2.1,2.2-3.3,3
			c-2.7,1.7-5.3,1.3-7.5-0.9c-2.2-2.3-2.4-4.9-0.7-7.5c0.6-0.9,1.5-1.7,2.3-2.5c52-52,103.9-103.9,155.9-155.9
			c4.7-4.7,7.1-4.7,11.9,0.1c1.6,1.6,3,3.4,4.8,4.7c10.1,7.8,15.7,18.4,18.6,30.6c1.2,5.1,0.3,7.5-4.6,9.3
			C362,155.1,358.5,156.3,354.5,157.6z M70.7,399.3c0.6,0.3,0.7,0.3,0.8,0.3c0.9,0.1,1.7,0.1,2.6,0.1c12.8,0.5,23.6,5.1,32.5,14.6
			c10.1,10.9,20.7,21.3,31.2,31.8c10.2,10.3,23.5,10.2,33.8-0.1c11.7-11.6,23.4-23.3,34.9-35c1.2-1.2,2.1-3.4,2.1-5.1
			c0.1-18.2,0.2-36.5,0-54.7c0-1.7-0.9-3.9-2.2-5.1c-16.4-16.6-33-33.1-49.5-49.6c-0.7-0.7-1.4-1.3-2.2-2c-0.5,0.3-0.8,0.5-1.1,0.7
			c-27.2,27.2-54.4,54.4-81.6,81.6c-0.7,0.7-1.4,1.9-1.4,2.8C70.7,386.3,70.7,392.8,70.7,399.3z"/>
		<path id="XMLID_119_" class="st2" d="M70.7,399.3c0-6.5-0.1-13,0.1-19.5c0-1,0.7-2.1,1.4-2.8c27.2-27.2,54.4-54.4,81.6-81.6
			c0.2-0.2,0.6-0.4,1.1-0.7c0.7,0.7,1.5,1.3,2.2,2c16.5,16.5,33.1,33,49.5,49.6c1.2,1.2,2.2,3.4,2.2,5.1c0.2,18.2,0.2,36.5,0,54.7
			c0,1.7-0.9,3.9-2.1,5.1c-11.5,11.8-23.2,23.4-34.9,35c-10.3,10.2-23.6,10.3-33.8,0.1c-10.5-10.5-21.1-21-31.2-31.8
			c-8.9-9.5-19.7-14.1-32.5-14.6c-0.9,0-1.7-0.1-2.6-0.1C71.4,399.7,71.3,399.6,70.7,399.3z M180.6,411.4c-1.5-3.6-2.7-7.4-4.7-10.7
			c-2.3-3.8-6.4-4.4-9.3-2.2c-2.8,2.2-3.1,5.6-0.4,9.3c2.2,3,2,5.8-0.4,8.4c-1.2,1.3-2.4,2.5-3.7,3.7c-2.8,2.4-5.8,2.6-8.4,0
			c-13.4-13.3-26.7-26.6-40-40c-2.6-2.6-2.4-5.6,0-8.4c0.9-1,1.9-2,2.9-2.9c3.9-3.8,6.6-3.8,10.6,0.1c6.5,6.4,12.9,12.9,19.4,19.3
			c3.3,3.3,6.9,3.7,9.5,1.1c2.7-2.6,2.4-6.3-0.8-9.5c-6.8-6.8-13.6-13.6-20.4-20.4c-4.4-4.3-9.6-6-15.7-5.2
			c-5.5,0.7-9.2,4.1-12.8,7.8c-8.7,8.9-8.8,19.3,0,28c12.4,12.5,25,24.8,37.3,37.4c6.1,6.2,13,8.3,21.1,5.3
			C172.8,429.4,179.8,419.5,180.6,411.4z M154.7,321.8c-3.4,0-5.9,2.6-5.9,5.9c0,3.4,2.5,6,5.8,6c3.5,0.1,6.2-2.6,6.1-6.1
			C160.7,324.3,158.1,321.8,154.7,321.8z M184.7,345.9c0.1-3.4-2.4-6-5.7-6.1c-3.4-0.1-6.1,2.3-6.2,5.6c-0.2,3.5,2.4,6.3,5.9,6.3
			C182,351.8,184.6,349.2,184.7,345.9z M190.5,381.7c3.3,0.1,6.1-2.3,6.3-5.6c0.2-3.4-2.2-6.1-5.5-6.3c-3.5-0.2-6.3,2.3-6.5,5.8
			C184.7,378.9,187.1,381.6,190.5,381.7z"/>
		<path id="XMLID_118_" d="M180.6,411.4c-0.9,8.1-7.9,18-16,21c-8.1,3-15,0.9-21.1-5.3c-12.4-12.6-24.9-24.9-37.3-37.4
			c-8.8-8.8-8.7-19.2,0-28c3.6-3.7,7.4-7.1,12.8-7.8c6.1-0.7,11.4,0.9,15.7,5.2c6.8,6.8,13.6,13.6,20.4,20.4
			c3.2,3.2,3.5,6.9,0.8,9.5c-2.7,2.6-6.2,2.2-9.5-1.1c-6.5-6.4-12.9-12.9-19.4-19.3c-3.9-3.9-6.6-3.9-10.6-0.1c-1,1-2,1.9-2.9,2.9
			c-2.4,2.7-2.6,5.8,0,8.4c13.3,13.4,26.6,26.7,40,40c2.6,2.6,5.6,2.4,8.4,0c1.3-1.2,2.5-2.4,3.7-3.7c2.5-2.7,2.6-5.4,0.4-8.4
			c-2.6-3.6-2.4-7.1,0.4-9.3c2.9-2.2,7-1.6,9.3,2.2C177.9,404,179.1,407.8,180.6,411.4z"/>
		<path id="XMLID_117_" d="M154.7,321.8c3.4,0,6,2.5,6,5.8c0.1,3.5-2.6,6.2-6.1,6.1c-3.3-0.1-5.9-2.7-5.8-6
			C148.8,324.3,151.3,321.8,154.7,321.8z"/>
		<path id="XMLID_116_" d="M184.7,345.9c-0.1,3.3-2.7,5.9-6,5.8c-3.5,0-6.1-2.8-5.9-6.3c0.2-3.3,2.8-5.7,6.2-5.6
			C182.3,339.9,184.8,342.5,184.7,345.9z"/>
		<path id="XMLID_115_" d="M190.5,381.7c-3.3-0.1-5.8-2.8-5.7-6.2c0.1-3.5,2.9-6,6.5-5.8c3.3,0.2,5.7,3,5.5,6.3
			C196.5,379.4,193.8,381.9,190.5,381.7z"/>
	</g>
</g>
<g id="Layer_3" class="st0">
	<g id="XMLID_18_" class="st1">
		<path id="XMLID_136_" class="st2" d="M58.8,259.6c0-64.5,0-129,0-193.5c128,0,256,0,384,0c0,75.2,0,150.5,0,225.8
			c-2.4-1-4.9-2.7-7.3-2.7c-33.5-0.2-67-0.2-100.5,0c-3.1,0-5-1-6.8-3.4c-9.6-12.6-19.4-25.1-29.1-37.7
			c-39.3-50.8-78.6-101.6-117.9-152.3c-7.1-9.2-17.9-9.1-24.9,0.1c-2.9,3.8-6.4,6.2-11.2,6.6c-11.5,1-19.2,7-23.4,17.7
			c-1.6,4.1-4.6,6.9-8.6,8.9c-8.9,4.5-11.2,14.4-5.3,22.5c3.2,4.3,6.8,8.4,9.8,12.8c7.8,11.5,18.2,18.2,32.2,19.1
			c4.1,0.3,6.8-0.9,7.2-4c0.3-2.8-1.7-4.9-5.8-5.3c-8.1-0.9-15.8-2.9-21.2-9.6c-4.9-6-9.6-12.2-14.3-18.3c-2.6-3.5-2-6.9,1.9-8.7
			c6.3-3,10.7-7.8,13.2-14.2c2.8-7.2,8.1-10.7,15.6-11.4c7.1-0.6,12.7-4.1,17.1-9.7c3.9-5,7-5,10.9,0.2c7.6,9.8,15.1,19.6,22.7,29.3
			c4.5,5.8,9,11.6,13.5,17.4c-1.1,0.9-1.8,1.6-2.6,2.2c-14.4,11.8-28.8,23.7-43.2,35.4c-5.8,4.7-10,10.5-10.1,18
			c-0.1,5.4,1.4,10.8,2.3,16.2c0.5,3.4,2.7,4.8,6,5c4.8,0.4,9.7,0.9,14.5,1.7c1.2,0.2,2.7,1.7,3,2.9c1.3,4.7,2.2,9.5,3.2,14.2
			c0.9,4,3.1,5.8,6,5.2c2.9-0.6,4.2-3.2,3.3-7.2c-1.3-6.2-3-12.4-4.1-18.6c-0.7-3.8-2.8-5.2-6.4-5.5c-4.8-0.4-9.7-1-14.5-1.6
			c-0.9-0.1-2.2-0.8-2.5-1.6c-3.5-8.3-1.5-15.6,5.5-21.4c5.3-4.4,10.6-8.7,16-13.1c9.7-8,19.5-15.9,29.5-24.1
			c56.2,72.6,112.2,144.9,169,218.3c-4.7,4.2-9.1,8.3-13.6,12.2c-0.8,0.7-2.1,1.3-3.2,1.2c-3.9-0.2-7.7-0.8-11.5-1.2
			c-2.1-0.2-3.3-0.8-3.7-3.2c-0.9-5-2.3-10-3.3-15c-0.6-2.7-2.1-4.1-4.8-4.4c-5.2-0.6-10.4-1.4-15.6-1.9c-1.9-0.2-2.7-0.8-3.1-2.8
			c-0.9-5-2.2-10-3.3-15c-0.6-3-2.5-4.5-5.4-4.8c-4.8-0.5-9.7-1.2-14.5-1.6c-2.2-0.2-3.3-0.8-3.7-3.2c-0.8-4.8-2-9.5-3-14.3
			c-0.6-2.9-2-5-5.4-5.2c-3.7-0.3-7.4-1.2-11.1-1.3c-4.2-0.1-7.5-0.7-8-5.9c-0.2-2.7-2.5-4-5.2-3.5c-2.9,0.5-4.2,2.6-3.8,5.5
			c0.4,2.3,1.1,4.6,1.4,7c0.5,3.4,2.3,5.1,5.6,5.4c5.8,0.6,11.6,1.4,17.5,2.1c1.3,5.9,2.7,11.5,3.9,17.3c0.7,3.4,2.7,4.8,6,5.1
			c4.8,0.4,9.7,1.1,14.5,1.5c1.9,0.2,2.8,0.9,3.1,2.9c1,5,2.3,10,3.3,15c0.6,3,2.3,4.4,5.3,4.8c5.2,0.5,10.4,1.2,15.6,2
			c1,0.2,2.2,1.4,2.5,2.4c1.2,4.7,2.3,9.4,3.2,14.2c0.7,4,3,5.6,6.9,6c6,0.5,11.9,1.3,17.8,2.1c2.9,0.4,5.1-0.3,7.1-2.4
			c5.2-5.4,10.4-10.8,15.7-16.2c4.4-4.5,4.4-5.5,0.6-10.5c-17.4-22.4-34.7-44.8-52.1-67.3c-0.7-0.9-1.3-1.9-2.1-3.1
			c31.7,0,62.9,0,94.3,0c0,7.5,0,14.8,0,22.4c-5.4,0-10.7,0-15.9,0c-12.1,0-24.2,0-36.4,0c-3.7,0-6,2-5.9,4.8c0,2.9,2.3,4.7,6,4.7
			c0.7,0,1.5,0,2.2,0c15.2,0,30.5,0,45.7,0c1.3,0,2.7,0,4.1,0c0,7.7,0,15,0,22.6c-7.1,0-13.9,0-20.8,0c-5.7,0-8.2,1.5-8.1,4.9
			c0.1,3.2,2.6,4.7,8,4.7c7,0,13.9,0,20.9,0c0,7.8,0,15.1,0,22.6c-7.7,0-15.2,0-22.7,0c-3.8,0-6,1.7-6.1,4.6c-0.1,3,2.2,4.9,6.2,5
			c4.9,0.1,9.7,0,14.6,0c2.7,0,5.4,0,8,0c0,7.8,0,15,0,22.3c-121.6,0-243,0-364.4,0c0-7.6,0-14.9,0-22.3c1.9,0,3.6,0,5.2,0
			c82,0,164,0,246,0c1.4,0,2.8,0.1,4.1-0.1c2.6-0.5,4.3-2.1,4.1-5c-0.2-2.8-1.8-4.2-4.6-4.5c-1.2-0.1-2.5,0-3.7,0
			c-82.1,0-164.2,0-246.4,0c-1.6,0-3.2,0-4.7,0c0-7.8,0-15.1,0-22.4c59.2,0,118.1,0,177.5,0c0,2.7-0.1,5.2,0,7.6
			c0.1,3.6,1.9,5.6,4.7,5.6c2.8,0,4.6-2.1,4.7-5.6c0.1-2.6,0-5.1,0-7.7c1.4-0.1,2.1-0.2,2.9-0.2c8.6,0,17.2,0,25.9,0
			c3.3,0,5.7-2.2,5.4-4.9c-0.3-3.1-2.2-4.6-5.3-4.6c-1.1,0-2.2,0-3.4,0c-8.3,0-16.7,0-25.5,0c0-1.8,0-3.3,0-4.8
			c0-28.1,0-56.2,0-84.4c0-6.2-1.3-7.4-7.5-7.4c-60.6,0-121.2,0-181.9,0.1C63.6,257,61.2,258.7,58.8,259.6z M166.9,116.5
			c-2.5,0.9-5.5,1.2-7.6,2.7c-7.5,5.5-15,11.2-22.1,17.3c-5.5,4.8-5.8,13.4-1.3,19c4.6,5.8,12.7,7.7,18.7,3.4
			c7.7-5.5,15.2-11.3,22.4-17.5c4.7-4.1,5.3-9.8,3.1-15.5C178.1,120.5,173,117.1,166.9,116.5z M370,371.8c0-2.6-2.2-5-4.8-4.7
			c-2.7,0.3-4.4,1.8-4.6,4.6c-0.2,2.6,2.1,4.8,4.6,4.9C368,376.6,370,374.5,370,371.8z"/>
		<path id="XMLID_132_" d="M58.8,259.6c2.4-0.9,4.9-2.6,7.3-2.6c60.6-0.1,121.2-0.1,181.9-0.1c6.2,0,7.5,1.2,7.5,7.4
			c0,28.1,0,56.2,0,84.4c0,1.5,0,2.9,0,4.8c8.8,0,17.1,0,25.5,0c1.1,0,2.2,0,3.4,0c3.1,0,5,1.6,5.3,4.6c0.3,2.7-2.1,4.9-5.4,4.9
			c-8.6,0.1-17.2,0-25.9,0c-0.7,0-1.5,0.1-2.9,0.2c0,2.6,0.1,5.2,0,7.7c-0.1,3.5-1.9,5.6-4.7,5.6c-2.8,0-4.6-2.1-4.7-5.6
			c-0.1-2.5,0-4.9,0-7.6c-59.3,0-118.3,0-177.5,0c0,7.3,0,14.6,0,22.4c1.6,0,3.2,0,4.7,0c82.1,0,164.2,0,246.4,0
			c1.2,0,2.5-0.1,3.7,0c2.7,0.2,4.4,1.6,4.6,4.5c0.2,2.9-1.5,4.4-4.1,5c-1.3,0.3-2.7,0.1-4.1,0.1c-82,0-164,0-246,0
			c-1.6,0-3.2,0-5.2,0c0,7.5,0,14.8,0,22.3c121.3,0,242.7,0,364.4,0c0-7.3,0-14.5,0-22.3c-2.6,0-5.3,0-8,0c-4.9,0-9.8,0-14.6,0
			c-4,0-6.2-1.9-6.2-5c0.1-2.9,2.3-4.6,6.1-4.6c7.5,0,15,0,22.7,0c0-7.6,0-14.9,0-22.6c-7,0-14,0-20.9,0c-5.4,0-7.9-1.5-8-4.7
			c-0.1-3.4,2.4-4.9,8.1-4.9c6.9,0,13.7,0,20.8,0c0-7.6,0-14.9,0-22.6c-1.4,0-2.8,0-4.1,0c-15.2,0-30.5,0-45.7,0c-0.7,0-1.5,0-2.2,0
			c-3.7-0.1-6-1.9-6-4.7c0-2.9,2.3-4.8,5.9-4.8c12.1,0,24.2,0,36.4,0c5.2,0,10.4,0,15.9,0c0-7.7,0-15,0-22.4c-31.4,0-62.6,0-94.3,0
			c0.8,1.2,1.4,2.2,2.1,3.1c17.4,22.4,34.7,44.9,52.1,67.3c3.8,4.9,3.8,6-0.6,10.5c-5.2,5.4-10.5,10.7-15.7,16.2
			c-2,2.1-4.2,2.8-7.1,2.4c-5.9-0.8-11.9-1.6-17.8-2.1c-3.9-0.3-6.2-2-6.9-6c-0.9-4.8-2-9.5-3.2-14.2c-0.3-1-1.5-2.2-2.5-2.4
			c-5.2-0.9-10.4-1.5-15.6-2c-3-0.3-4.7-1.7-5.3-4.8c-1-5-2.3-9.9-3.3-15c-0.4-1.9-1.2-2.7-3.1-2.9c-4.8-0.4-9.7-1.1-14.5-1.5
			c-3.2-0.3-5.3-1.7-6-5.1c-1.1-5.7-2.5-11.4-3.9-17.3c-5.9-0.7-11.7-1.4-17.5-2.1c-3.3-0.4-5.2-2.1-5.6-5.4c-0.3-2.3-1.1-4.6-1.4-7
			c-0.4-2.9,0.9-5,3.8-5.5c2.7-0.5,5,0.8,5.2,3.5c0.5,5.2,3.7,5.8,8,5.9c3.7,0.1,7.4,1,11.1,1.3c3.4,0.3,4.8,2.3,5.4,5.2
			c1,4.7,2.2,9.5,3,14.3c0.4,2.4,1.5,3,3.7,3.2c4.9,0.4,9.7,1,14.5,1.6c2.9,0.3,4.8,1.8,5.4,4.8c1,5,2.4,9.9,3.3,15
			c0.4,2,1.2,2.6,3.1,2.8c5.2,0.5,10.4,1.3,15.6,1.9c2.7,0.3,4.2,1.7,4.8,4.4c1.1,5,2.5,9.9,3.3,15c0.4,2.4,1.6,3,3.7,3.2
			c3.9,0.4,7.7,1,11.5,1.2c1,0.1,2.4-0.5,3.2-1.2c4.5-3.9,9-8,13.6-12.2c-56.8-73.4-112.8-145.7-169-218.3
			c-10,8.2-19.8,16.2-29.5,24.1c-5.3,4.4-10.6,8.7-16,13.1c-7,5.8-9,13.1-5.5,21.4c0.3,0.8,1.6,1.5,2.5,1.6
			c4.8,0.7,9.7,1.2,14.5,1.6c3.6,0.3,5.7,1.8,6.4,5.5c1.2,6.2,2.8,12.4,4.1,18.6c0.9,4-0.4,6.6-3.3,7.2c-3,0.6-5.1-1.2-6-5.2
			c-1.1-4.7-1.9-9.5-3.2-14.2c-0.3-1.2-1.8-2.7-3-2.9c-4.8-0.8-9.6-1.3-14.5-1.7c-3.3-0.3-5.4-1.7-6-5c-0.8-5.4-2.4-10.8-2.3-16.2
			c0.2-7.5,4.3-13.3,10.1-18c14.5-11.7,28.8-23.6,43.2-35.4c0.8-0.6,1.5-1.3,2.6-2.2c-4.5-5.8-9-11.6-13.5-17.4
			c-7.6-9.8-15.1-19.6-22.7-29.3c-4-5.1-7.1-5.2-10.9-0.2c-4.3,5.6-10,9.1-17.1,9.7c-7.6,0.7-12.8,4.2-15.6,11.4
			c-2.5,6.4-6.8,11.2-13.2,14.2c-3.9,1.8-4.5,5.2-1.9,8.7c4.7,6.2,9.4,12.3,14.3,18.3c5.4,6.7,13.1,8.7,21.2,9.6
			c4.2,0.5,6.2,2.5,5.8,5.3c-0.4,3.1-3.1,4.3-7.2,4c-14-0.9-24.4-7.6-32.2-19.1c-3-4.4-6.6-8.5-9.8-12.8c-5.9-8-3.6-17.9,5.3-22.5
			c4-2,7-4.8,8.6-8.9c4.2-10.7,11.9-16.6,23.4-17.7c4.8-0.4,8.3-2.9,11.2-6.6c7-9.2,17.8-9.2,24.9-0.1
			c39.3,50.8,78.6,101.5,117.9,152.3c9.7,12.5,19.5,25,29.1,37.7c1.8,2.4,3.7,3.4,6.8,3.4c33.5-0.1,67-0.1,100.5,0
			c2.4,0,4.9,1.8,7.3,2.7c0,44.3,0,88.5,0,132.8c-2.4,0.9-4.9,2.6-7.3,2.6c-123.1,0.1-246.2,0.1-369.3,0c-2.4,0-4.9-1.7-7.3-2.6
			C58.8,369.6,58.8,314.6,58.8,259.6z M245.9,298.8c-59.3,0-118.3,0-177.3,0c0,7.5,0,14.8,0,22.4c1.6,0,3,0,4.3,0c15,0,30,0,45,0
			c2.5,0,5-0.2,7.5,0.1c2.7,0.2,4.5,1.9,4.5,4.6c0,2.9-1.8,4.6-4.6,4.9c-1,0.1-2,0-3,0c-16.5,0-33,0-49.5,0c-1.3,0-2.7,0-4.2,0
			c0,7.7,0,15,0,22.3c59.2,0,118.3,0,177.3,0c0-7.5,0-14.7,0-22.3c-1.6,0-2.9,0-4.2,0c-21.1,0-42.2,0-63.4,0c-1.1,0-2.6,0.4-3.3-0.1
			c-1.6-1.3-4-3-4-4.5c0-1.6,2.2-3.4,3.8-4.7c0.7-0.6,2.2-0.2,3.3-0.2c21.1,0,42.2,0,63.4,0c1.4,0,2.9,0,4.5,0
			C245.9,313.5,245.9,306.3,245.9,298.8z M245.8,266.6c-59.3,0-118.3,0-177.3,0c0,7.5,0,14.8,0,22.1c59.2,0,118.1,0,177.3,0
			C245.8,281.3,245.8,274.1,245.8,266.6z"/>
		<path id="XMLID_131_" class="st2" d="M58.8,424.6c2.4,0.9,4.9,2.6,7.3,2.6c123.1,0.1,246.2,0.1,369.3,0c2.4,0,4.9-1.7,7.3-2.6
			c0,8.5,0,17,0,25.5c-128,0-256,0-384,0C58.8,441.6,58.8,433.1,58.8,424.6z"/>
		<path id="XMLID_128_" d="M166.9,116.5c6.1,0.6,11.2,3.9,13.3,9.4c2.2,5.7,1.5,11.4-3.1,15.5c-7.2,6.2-14.6,12.1-22.4,17.5
			c-6,4.3-14.1,2.4-18.7-3.4c-4.5-5.7-4.2-14.2,1.3-19c7.1-6.1,14.5-11.8,22.1-17.3C161.4,117.7,164.4,117.4,166.9,116.5z
			 M146.7,152c1.4-0.5,2.3-0.6,3-1c6.9-5.3,13.9-10.6,20.6-16.2c2-1.7,2.2-4.7,0.1-6.3c-1.4-1.1-4.7-1.9-5.9-1.1
			c-7.1,5-14,10.5-20.7,16.1c-1.1,0.9-1.2,3.8-0.7,5.4C143.5,150.3,145.5,151.1,146.7,152z"/>
		<path id="XMLID_127_" d="M370,371.8c0,2.7-2,4.8-4.7,4.8c-2.6,0-4.8-2.3-4.6-4.9c0.2-2.8,1.9-4.3,4.6-4.6
			C367.8,366.8,370,369.1,370,371.8z"/>
		<path id="XMLID_124_" class="st2" d="M245.9,298.8c0,7.5,0,14.7,0,22.4c-1.6,0-3.1,0-4.5,0c-21.1,0-42.2,0-63.4,0
			c-1.1,0-2.6-0.4-3.3,0.2c-1.6,1.3-3.8,3.1-3.8,4.7c0,1.6,2.4,3.3,4,4.5c0.7,0.6,2.2,0.1,3.3,0.1c21.1,0,42.2,0,63.4,0
			c1.3,0,2.7,0,4.2,0c0,7.6,0,14.8,0,22.3c-59.1,0-118.1,0-177.3,0c0-7.3,0-14.6,0-22.3c1.5,0,2.9,0,4.2,0c16.5,0,33,0,49.5,0
			c1,0,2,0.1,3,0c2.9-0.3,4.7-1.9,4.6-4.9c0-2.7-1.8-4.4-4.5-4.6c-2.5-0.2-5-0.1-7.5-0.1c-15,0-30,0-45,0c-1.3,0-2.7,0-4.3,0
			c0-7.6,0-14.9,0-22.4C127.6,298.8,186.5,298.8,245.9,298.8z M150.8,330.8c3.8,0,6.2-2,6.1-4.9c-0.1-2.9-2.6-4.7-6.4-4.6
			c-3.6,0.1-5.9,1.9-5.9,4.8C144.6,328.9,147,330.8,150.8,330.8z"/>
		<path id="XMLID_123_" class="st2" d="M245.8,266.6c0,7.5,0,14.7,0,22.1c-59.1,0-118.1,0-177.3,0c0-7.3,0-14.6,0-22.1
			C127.6,266.6,186.5,266.6,245.8,266.6z"/>
		<path id="XMLID_122_" class="st2" d="M146.7,152c-1.2-0.9-3.2-1.7-3.6-3c-0.5-1.6-0.4-4.5,0.7-5.4c6.7-5.7,13.5-11.1,20.7-16.1
			c1.2-0.8,4.5-0.1,5.9,1.1c2.1,1.6,2,4.6-0.1,6.3c-6.7,5.6-13.7,10.9-20.6,16.2C149,151.4,148.1,151.5,146.7,152z"/>
		<path id="XMLID_121_" d="M150.8,330.8c-3.8,0-6.2-1.9-6.2-4.8c0-2.9,2.3-4.7,5.9-4.8c3.8-0.1,6.3,1.7,6.4,4.6
			C157,328.8,154.6,330.8,150.8,330.8z"/>
	</g>
</g>
<g id="Layer_4">
	<rect id="XMLID_52_" x="250" y="297" class="st3" width="184.3" height="127.3"/>
	<g id="XMLID_21_">
		<g id="XMLID_22_">
			<g id="XMLID_55_">
				<path id="XMLID_80_" class="st4" d="M437.7,321.3c-29,0-57.9,0-86.9,0c-4.2,0-8.3,0-12.5,0c-6.4,0-6.4,10,0,10
					c29,0,57.9,0,86.9,0c4.2,0,8.3,0,12.5,0C444.1,331.3,444.1,321.3,437.7,321.3L437.7,321.3z"/>
			</g>
		</g>
	</g>
	<g id="XMLID_30_">
		<g id="XMLID_31_">
			<g id="XMLID_47_">
				<path id="XMLID_53_" class="st4" d="M437.7,352.7c-26,0-51.9,0-77.9,0c-6.4,0-6.4,10,0,10c26,0,51.9,0,77.9,0
					C444.1,362.7,444.1,352.7,437.7,352.7L437.7,352.7z"/>
			</g>
		</g>
	</g>
	<g id="XMLID_38_">
		<g id="XMLID_44_">
			<g id="XMLID_41_">
				<path id="XMLID_54_" class="st4" d="M437.7,384c-20.2,0-40.4,0-60.6,0c-6.4,0-6.4,10,0,10c20.2,0,40.4,0,60.6,0
					C444.1,394,444.1,384,437.7,384L437.7,384z"/>
			</g>
		</g>
	</g>
</g>
<g id="Layer_2">
	<polyline id="XMLID_5_" class="st5" points="256.1,169.8 378.8,392.2 357.2,404.7 339.7,405.2 336,386.7 320,386.9 317.8,368.2 
		297.2,369.9 297.6,349.2 279.6,351.6 278.2,332.4 258.8,332.3 257.6,313.9 239.9,313.7 239,295.3 220,294 220.6,277.5 201.8,277.6 
		199,258.7 181.7,258.5 180,240.3 161.8,240.9 160.1,223.1 141.5,222.5 149.8,194 	"/>
	<path id="XMLID_1_" class="st5" d="M264.4,165.2L190.7,206l-61.5-17.9c-11.5-39.1-58.8-55.6-18.2-90.3s44.7-5.7,62.2-51.3l31.9,9.3
		L264.4,165.2z"/>
	<path id="XMLID_6_" class="st6" d="M157.7,101.4c0,0-45.2,13.3-33.5,29.2s21,30.2,24.8,27.4c64.4-23.8,78.5-26.6,43.9-61.4
		C186,92.5,157.7,101.4,157.7,101.4z"/>
	<circle id="XMLID_7_" class="st4" cx="226.5" cy="160.5" r="8.7"/>
	<circle id="XMLID_8_" class="st4" cx="202.3" cy="174.3" r="8.7"/>
</g>
<g id="Layer_5">
	<rect id="XMLID_46_" x="62.3" y="261.7" class="st3" width="187.7" height="162.7"/>
	<g id="XMLID_11_">
		<g id="XMLID_9_">
			<g id="XMLID_78_">
				<path id="XMLID_83_" class="st4" d="M255,370.3c0-31.7,0-63.4,0-95.1c0-4.5,0-9,0-13.6c0-2.7-2.3-5-5-5c-21.1,0-42.3,0-63.4,0
					c-33.7,0-67.4,0-101.1,0c-7.7,0-15.5,0-23.2,0c-2.7,0-5,2.3-5,5c0,46.7,0,93.4,0,140c0,6.7,0,13.3,0,20c0,2.7,2.3,5,5,5
					c12.5,0,24.9,0,37.4,0c29.9,0,59.8,0,89.8,0c36,0,72,0,108.1,0c31.3,0,62.6,0,93.9,0c10.3,0,20.6,0,30.9,0c4.8,0,9.8,0.3,14.7,0
					c0.2,0,0.4,0,0.6,0c2.7,0,5-2.3,5-5c0-37.4,0-74.9,0-112.3c0-5.2,0-10.5,0-15.7c0-2.7-2.3-5-5-5c-31,0-61.9,0-92.9,0
					c-4.4,0-8.8,0-13.1,0c-6.4,0-6.4,10,0,10c31,0,61.9,0,92.9,0c4.4,0,8.8,0,13.1,0c-1.7-1.7-3.3-3.3-5-5c0,37.4,0,74.9,0,112.3
					c0,5.2,0,10.5,0,15.7c1.7-1.7,3.3-3.3,5-5c-12.5,0-24.9,0-37.4,0c-29.9,0-59.8,0-89.8,0c-36,0-72,0-108.1,0
					c-31.3,0-62.6,0-93.9,0c-10.3,0-20.6,0-30.9,0c-4.6,0-10.1-0.8-14.7,0c-0.2,0-0.4,0-0.6,0c1.7,1.7,3.3,3.3,5,5
					c0-46.7,0-93.4,0-140c0-6.7,0-13.3,0-20c-1.7,1.7-3.3,3.3-5,5c21.1,0,42.3,0,63.4,0c33.7,0,67.4,0,101.1,0c7.7,0,15.5,0,23.2,0
					c-1.7-1.7-3.3-3.3-5-5c0,31.7,0,63.4,0,95.1c0,4.5,0,9,0,13.6C245,376.8,255,376.8,255,370.3L255,370.3z"/>
			</g>
		</g>
	</g>
	<g id="XMLID_12_">
		<g id="XMLID_13_">
			<g id="XMLID_72_">
				<path id="XMLID_77_" class="st4" d="M62.3,298.7c21.1,0,42.3,0,63.4,0c33.7,0,67.4,0,101.1,0c7.7,0,15.5,0,23.2,0
					c6.4,0,6.4-10,0-10c-21.1,0-42.3,0-63.4,0c-33.7,0-67.4,0-101.1,0c-7.7,0-15.5,0-23.2,0C55.9,288.7,55.9,298.7,62.3,298.7
					L62.3,298.7z"/>
			</g>
		</g>
	</g>
	<g id="XMLID_14_">
		<g id="XMLID_15_">
			<g id="XMLID_65_">
				<path id="XMLID_70_" class="st4" d="M62.3,331.3c21.1,0,42.3,0,63.4,0c33.7,0,67.4,0,101.1,0c7.7,0,15.5,0,23.2,0
					c6.4,0,6.4-10,0-10c-21.1,0-42.3,0-63.4,0c-33.7,0-67.4,0-101.1,0c-7.7,0-15.5,0-23.2,0C55.9,321.3,55.9,331.3,62.3,331.3
					L62.3,331.3z"/>
			</g>
		</g>
	</g>
	<g id="XMLID_16_">
		<g id="XMLID_17_">
			<g id="XMLID_58_">
				<path id="XMLID_63_" class="st4" d="M62.3,362.7c26.6,0,53.1,0,79.7,0c42.1,0,84.3,0,126.4,0c9.7,0,19.3,0,29,0
					c6.4,0,6.4-10,0-10c-26.6,0-53.1,0-79.7,0c-42.1,0-84.3,0-126.4,0c-9.7,0-19.3,0-29,0C55.9,352.7,55.9,362.7,62.3,362.7
					L62.3,362.7z"/>
			</g>
		</g>
	</g>
	<g id="XMLID_19_">
		<g id="XMLID_20_">
			<g id="XMLID_49_">
				<path id="XMLID_71_" class="st4" d="M62.3,394c29.4,0,58.9,0,88.3,0c46.5,0,93,0,139.5,0c10.7,0,21.5,0,32.2,0
					c6.4,0,6.4-10,0-10c-29.4,0-58.9,0-88.3,0c-46.5,0-93,0-139.5,0c-10.7,0-21.5,0-32.2,0C55.9,384,55.9,394,62.3,394L62.3,394z"/>
			</g>
		</g>
	</g>
</g>
</svg>
