<?xml version="1.0" encoding="utf-8"?>
<!-- Generator: Adobe Illustrator 19.0.0, SVG Export Plug-In . SVG Version: 6.00 Build 0)  -->
<svg version="1.1" xmlns="http://www.w3.org/2000/svg" xmlns:xlink="http://www.w3.org/1999/xlink" x="0px" y="0px"
	 viewBox="0 0 100 100" style="enable-background:new 0 0 100 100;" xml:space="preserve">
<style type="text/css">
	.st0{fill:#F8F8F8;}
</style>
<g id="Layer_2">
</g>
<g id="Layer_1">
	<g id="XMLID_1_">
		<path id="XMLID_35_" class="st0" d="M50.5,90.9C28.1,91,9.9,72.8,9.9,50.5c0-22.2,18.3-40.6,40.6-40.6c22.3,0,40.5,18.2,40.5,40.6
			C91,72.9,72.9,90.9,50.5,90.9z M73.7,74.2c-1.1-0.9-2.2-1.6-3.1-2.5c-0.3-0.2-0.2-0.8-0.2-1.3c0.5,0,1.2-0.1,1.4,0.1
			c0.9,0.9,1.6,2,2.4,3.2c6.2-6.7,9.2-13.9,9.5-22.4c-1.4,0-2.5,0.1-3.6,0c-0.5-0.1-0.9-0.6-1.4-0.9c0.4-0.3,0.9-0.7,1.3-0.8
			c1.2-0.1,2.4,0,3.7,0c-0.5-8.6-3.4-15.8-9.4-22.1c-0.7,0.9-1.2,1.7-1.9,2.3c-0.5,0.4-1.4,0.5-2.1,0.7c0.3-0.6,0.4-1.4,0.8-1.9
			c0.7-0.7,1.6-1.2,2.5-1.9c-6.6-6.1-13.8-9.1-22.3-9.4c0,1.2,0.1,2.2,0,3.2c-0.1,0.6-0.6,1.2-0.9,1.8c-0.3-0.6-0.7-1.1-0.8-1.7
			c-0.1-1,0-2.1,0-3.3c-8.6,0.4-15.8,3.3-22.1,9.3c1.1,1,2.1,1.7,2.9,2.6c0.3,0.3,0.1,0.9,0.1,1.4c-0.4-0.1-1,0-1.3-0.3
			c-0.8-0.9-1.6-2-2.4-3.1c-6.1,6.7-9.2,13.9-9.4,22.3c1.4,0,2.5-0.1,3.6,0c0.5,0,0.9,0.5,1.3,0.8c-0.5,0.3-0.9,0.8-1.4,0.9
			c-1.2,0.1-2.3,0-3.6,0c0.4,8.6,3.3,15.8,9.5,22.4c0.8-1,1.4-2,2.2-2.8c0.3-0.3,1-0.4,1.6-0.5c-0.1,0.6-0.1,1.3-0.4,1.8
			c-0.7,0.8-1.7,1.5-2.6,2.3c6.5,5.9,13.7,9,22.1,9.2c0-1.2-0.1-2.1,0-3c0.1-0.7,0.5-1.3,0.8-1.9c0.3,0.7,0.8,1.3,0.9,2
			c0.2,0.9,0,1.9,0,3C59.9,83.2,67.1,80.3,73.7,74.2z"/>
		<path id="XMLID_31_" class="st0" d="M47.9,41.2c0-3,0-6,0-9c0-2.2,1.1-3.6,2.8-3.5c1.7,0,2.7,1.3,2.7,3.6c0,5.3-0.1,10.7,0.1,16
			c0,1.1,0.6,2.3,1.3,3.1c2.6,2.8,5.4,5.5,8.1,8.2c1.5,1.5,1.6,3.1,0.4,4.3c-1.2,1.2-2.8,1-4.3-0.5c-3.3-3.2-6.6-6.5-9.8-9.8
			c-0.8-0.8-1.2-2.2-1.3-3.4C47.8,47.2,47.9,44.2,47.9,41.2z"/>
	</g>
</g>
</svg>
