<?xml version="1.0" encoding="utf-8"?>
<!-- Generator: Adobe Illustrator 19.0.0, SVG Export Plug-In . SVG Version: 6.00 Build 0)  -->
<svg version="1.1" id="Layer_1" xmlns="http://www.w3.org/2000/svg" xmlns:xlink="http://www.w3.org/1999/xlink" x="0px" y="0px"
	 viewBox="0 0 500 500" style="enable-background:new 0 0 500 500;" xml:space="preserve">
<style type="text/css">
	.st0{fill:#26265E;stroke:#F8F8F8;stroke-width:5;stroke-miterlimit:10;}
	.st1{fill:#26265E;}
	.st2{fill:#F8F8F8;}
</style>
<polygon id="XMLID_1_" class="st0" points="453.1,351.4 43.5,351.4 43.5,139.2 370.4,139.2 370.4,202 453.1,202 "/>
<g id="XMLID_6_">
	<g id="XMLID_2_">
		<line id="XMLID_93_" class="st1" x1="368.4" y1="139.2" x2="368.4" y2="216.1"/>
		<g id="XMLID_88_">
			<path id="XMLID_92_" class="st2" d="M367.2,139.2c0,25.6,0,51.3,0,76.9c0,1.6,2.5,1.6,2.5,0c0-25.6,0-51.3,0-76.9
				C369.7,137.6,367.2,137.6,367.2,139.2L367.2,139.2z"/>
		</g>
	</g>
	<g id="XMLID_3_">
		<line id="XMLID_86_" class="st1" x1="368.4" y1="232.2" x2="368.4" y2="259.1"/>
		<g id="XMLID_81_">
			<path id="XMLID_85_" class="st2" d="M367.2,232.2c0,9,0,17.9,0,26.9c0,1.6,2.5,1.6,2.5,0c0-9,0-17.9,0-26.9
				C369.7,230.5,367.2,230.5,367.2,232.2L367.2,232.2z"/>
		</g>
	</g>
	<g id="XMLID_4_">
		<line id="XMLID_79_" class="st1" x1="368.4" y1="272.5" x2="368.4" y2="279.6"/>
		<g id="XMLID_74_">
			<path id="XMLID_78_" class="st2" d="M367.2,272.5c0,2.4,0,4.7,0,7.1c0,1.6,2.5,1.6,2.5,0c0-2.4,0-4.7,0-7.1
				C369.7,270.9,367.2,270.9,367.2,272.5L367.2,272.5z"/>
		</g>
	</g>
	<g id="XMLID_5_">
		<line id="XMLID_72_" class="st1" x1="368.4" y1="289.8" x2="368.4" y2="351.4"/>
		<g id="XMLID_67_">
			<path id="XMLID_71_" class="st2" d="M367.2,289.8c0,20.5,0,41,0,61.5c0,1.6,2.5,1.6,2.5,0c0-20.5,0-41,0-61.5
				C369.7,288.2,367.2,288.2,367.2,289.8L367.2,289.8z"/>
		</g>
	</g>
</g>
<g id="XMLID_17_">
	<g id="XMLID_7_">
		<line id="XMLID_66_" class="st1" x1="43.5" y1="204" x2="173.6" y2="204"/>
		<g id="XMLID_61_">
			<path id="XMLID_65_" class="st2" d="M43.5,205.3c38,0,76.1,0,114.1,0c5.3,0,10.7,0,16,0c1.6,0,1.6-2.5,0-2.5
				c-38,0-76.1,0-114.1,0c-5.3,0-10.7,0-16,0C41.9,202.8,41.9,205.3,43.5,205.3L43.5,205.3z"/>
		</g>
	</g>
	<g id="XMLID_8_">
		<line id="XMLID_59_" class="st1" x1="183.9" y1="204" x2="243.5" y2="204"/>
		<g id="XMLID_54_">
			<path id="XMLID_58_" class="st2" d="M183.9,205.3c19.9,0,39.7,0,59.6,0c1.6,0,1.6-2.5,0-2.5c-19.9,0-39.7,0-59.6,0
				C182.3,202.8,182.3,205.3,183.9,205.3L183.9,205.3z"/>
		</g>
	</g>
	<g id="XMLID_9_">
		<line id="XMLID_52_" class="st1" x1="250" y1="204" x2="262.1" y2="204"/>
		<g id="XMLID_47_">
			<path id="XMLID_51_" class="st2" d="M250,205.3c4,0,8.1,0,12.1,0c1.6,0,1.6-2.5,0-2.5c-4,0-8.1,0-12.1,0
				C248.4,202.8,248.4,205.3,250,205.3L250,205.3z"/>
		</g>
	</g>
	<g id="XMLID_10_">
		<line id="XMLID_45_" class="st1" x1="275.5" y1="204" x2="281.9" y2="204"/>
		<g id="XMLID_40_">
			<path id="XMLID_44_" class="st2" d="M275.5,205.3c2.1,0,4.3,0,6.4,0c1.6,0,1.6-2.5,0-2.5c-2.1,0-4.3,0-6.4,0
				C273.9,202.8,273.9,205.3,275.5,205.3L275.5,205.3z"/>
		</g>
	</g>
	<g id="XMLID_11_">
		<line id="XMLID_37_" class="st1" x1="292.8" y1="204" x2="370.4" y2="204"/>
		<g id="XMLID_32_">
			<path id="XMLID_36_" class="st2" d="M292.8,205.3c25.9,0,51.7,0,77.6,0c1.6,0,1.6-2.5,0-2.5c-25.9,0-51.7,0-77.6,0
				C291.2,202.8,291.2,205.3,292.8,205.3L292.8,205.3z"/>
		</g>
	</g>
	<g id="XMLID_12_">
		<line id="XMLID_30_" class="st1" x1="370.4" y1="204" x2="453.1" y2="204"/>
		<g id="XMLID_25_">
			<path id="XMLID_29_" class="st2" d="M370.4,205.3c27.6,0,55.1,0,82.7,0c1.6,0,1.6-2.5,0-2.5c-27.6,0-55.1,0-82.7,0
				C368.8,202.8,368.8,205.3,370.4,205.3L370.4,205.3z"/>
		</g>
	</g>
</g>
</svg>
