<?xml version="1.0" encoding="utf-8"?>
<!-- Generator: Adobe Illustrator 19.0.0, SVG Export Plug-In . SVG Version: 6.00 Build 0)  -->
<svg version="1.1" id="Layer_1" xmlns="http://www.w3.org/2000/svg" xmlns:xlink="http://www.w3.org/1999/xlink" x="0px" y="0px"
	 viewBox="0 0 500 500" style="enable-background:new 0 0 500 500;" xml:space="preserve">
<style type="text/css">
	.st0{fill:#E0E0E0;}
</style>
<g id="XMLID_1_">
	<path id="XMLID_26_" class="st0" d="M306.1,321.7c-40.3,35.1-94.9,27.2-125.4-4.2c-30.4-31.4-33.6-80.4-7.6-116.5
		c22.2-30.9,76.6-53.6,126.2-18.8c2-11,8.6-17.3,18.2-17.4c10.1,0,18.1,7.8,18.1,18c0,36.1,0.1,72.2,0,108.4
		c0,8.6,2.2,16.3,8.6,22.3c14.2,13.4,37.1,7.9,43.4-10.6c27.1-79.5-16.5-167.5-99.8-192c-84.1-24.8-171.6,28.1-189.1,114
		c-16.5,80.9,36.5,161,117.1,176.8c37.4,7.3,72.7,1.4,105.8-17.7c4.6-2.7,9.4-4,14.7-2.8c7.4,1.8,12.6,7.4,13.6,14.7
		c1.1,8-1.8,14.3-8.7,18.4c-20.1,12.2-41.7,20.3-64.8,24c-39.2,6.3-77,1.2-112.5-16.8C110,394.1,75.8,350.7,63.5,291.4
		c-12.1-58.2,1.5-110.9,39.1-156.8c29-35.3,66.5-57.3,111.7-64.3c70.5-10.9,129.2,11.8,175.4,65.9c21.9,25.7,34.6,56,39.7,89.5
		c4.6,29.9,2.4,59.3-7.4,87.9c-8.7,25.3-26.9,40.3-53.4,42.7c-26.7,2.4-47.2-9-60.9-32.1c-0.4-0.6-0.7-1.3-1.1-2
		C306.4,322.1,306.2,321.9,306.1,321.7z M299.6,254.9c-0.1-29.7-24.4-54.1-53.8-54.1c-29.9,0-54.2,24.3-54.2,54.1
		c0,29.6,24.6,54.1,54.3,54C275.2,308.6,299.7,284.1,299.6,254.9z"/>
</g>
</svg>
