<?xml version="1.0" encoding="utf-8"?>
<!-- Generator: Adobe Illustrator 19.0.0, SVG Export Plug-In . SVG Version: 6.00 Build 0)  -->
<svg version="1.1" id="Layer_1" xmlns="http://www.w3.org/2000/svg" xmlns:xlink="http://www.w3.org/1999/xlink" x="0px" y="0px"
	 viewBox="0 0 500 500" style="enable-background:new 0 0 500 500;" xml:space="preserve">
<style type="text/css">
	.st0{fill:#26265E;}
	.st1{fill:#E0E0E0;}
</style>
<polygon id="XMLID_1_" class="st0" points="198.3,400.9 351,400.9 385,125 198.3,118.3 "/>
<g id="XMLID_2_">
	<path id="XMLID_17_" class="st1" d="M326.5,400.8c0-45.2,0-90.2,0-135.3c12.5,0,24.9,0,37.5,0c1.7-15.6,3.4-31.1,5.1-46.9
		c-14.3,0-28.4,0-42.6,0c-0.1-0.7-0.2-1.2-0.2-1.7c0-7.8,0-15.6,0.1-23.4c0-2.4,0.4-4.9,1-7.2c1.5-5.8,6.2-9,13.5-9.1
		c8.3-0.2,16.6-0.1,24.9-0.1c0.8,0,1.5,0,2.4,0c0-15.6,0-30.9,0-46.6c-0.7,0-1.4,0-2.1,0c-13.1,0-26.3,0-39.4,0
		c-9.3,0-18.3,1.4-26.9,4.9c-13.4,5.5-21.5,15.7-25.6,29.3c-2,6.5-3.1,13.2-3.2,20.1c-0.2,10.5-0.2,21-0.1,31.5
		c0,1.8-0.4,2.4-2.3,2.4c-7.5-0.1-15,0-22.6,0c-0.7,0-1.4,0-2.3,0c0,15.6,0,31.1,0,46.9c9,0,17.9,0,26.9,0c0,45.2,0,90.2,0,135.3
		c-0.6,0-1.2,0.1-1.8,0.1c-44.6,0-89.2,0-133.8,0c-22,0-40.5-16.5-42.7-38.4c-0.8-8.2-0.4-16.6-0.4-24.9c0-60.7,0-121.4,0-182.1
		c0-9.7-0.1-19.4,0-29.1c0.2-21.1,17-39.9,38-41.8c8.8-0.8,17.7-0.4,26.5-0.5c69.5,0,139,0,208.4,0c21.9,0,39.6,15,43.2,36.6
		c0.4,2.7,0.5,5.4,0.5,8.1c0,71.6,0,143.2,0,214.8c0,6.5,0.2,13.1-0.4,19.6c-1.8,19.1-18.5,35.9-37.6,37.3
		c-11,0.8-22.2,0.4-33.2,0.5C333.9,400.9,330.3,400.8,326.5,400.8z"/>
</g>
</svg>
