<?xml version="1.0" encoding="utf-8"?>
<!-- Generator: Adobe Illustrator 19.0.0, SVG Export Plug-In . SVG Version: 6.00 Build 0)  -->
<svg version="1.1" id="Layer_1" xmlns="http://www.w3.org/2000/svg" xmlns:xlink="http://www.w3.org/1999/xlink" x="0px" y="0px"
	 viewBox="0 0 175 232.5" style="enable-background:new 0 0 175 232.5;" xml:space="preserve">
<style type="text/css">
	.st0{display:none;}
	.st1{font-family:'SurfQuestCompact';}
	.st2{font-size:43px;}
	.st3{font-family:'UraeNium';}
	.st4{font-family:'HeadlineOneHPLHS';}
	.st5{font-size:68.8794px;}
	.st6{font-size:78.3611px;}
	.st7{fill:#F8F8F8;stroke:#25275E;stroke-miterlimit:10;}
	.st8{fill:#F8F8F8;stroke:#26265E;stroke-miterlimit:10;}
	.st9{display:none;fill:#26265E;}
</style>
<text id="XMLID_1_" transform="matrix(1 0 0 1 -119.7178 -25.7563)" class="st0 st2" style="font-family:'Juzif-Black---All-Caps-Demo---Personal-Use-Only';">COMMANDER CARE</text>
<text id="XMLID_2_" transform="matrix(1 0 0 1 -117.1538 45.3975)" class="st0 st1 st2">COMMANDER CARE</text>
<text id="XMLID_3_" transform="matrix(1 0 0 1 -115.8716 135.1406)" class="st0 st3 st2">COMMANDER CARE</text>
<text id="XMLID_4_" transform="matrix(1 0 0 1 -127.41 17.4188)" class="st0 st4 st5">COMMANDER CARE</text>
<text id="XMLID_5_" transform="matrix(1 0 0 1 -122.282 171.9342)" class="st0 st1 st6">Commander Care</text>
<g id="XMLID_8_">
	<path id="XMLID_31_" class="st7" d="M79.1,180V26.4c0-5.8,1.9-11.1,5.6-15.8c3.8-4.7,8.9-7.1,15.5-7.1h71.2v24H126
		c-4.1,0-6.2,2.3-6.2,6.8v161.9c0,4.5,2.1,6.8,6.2,6.8h44.5v24H126L79.1,180z"/>
	<path id="XMLID_9_" class="st8" d="M51,3.5h51v24H52.2c-4.1,0-6.2,2.3-6.2,6.8v161.9c0,4.5,2.1,6.8,6.2,6.8h52.3v24h-78
		c-6.6,0-11.8-2.4-15.5-7.1c-3.8-4.7-5.6-10-5.6-15.8V48.7L51,3.5z"/>
</g>
<polygon id="XMLID_7_" class="st9" points="-106.8,108.7 -108.1,109.9 -120.7,122.6 -123.1,124.9 -130.3,117.7 -114,101.5 "/>
<rect id="XMLID_41_" x="-100.9" y="164.2" transform="matrix(-0.7071 -0.7071 0.7071 -0.7071 -272.852 222.2822)" class="st9" width="21.1" height="6.8"/>
</svg>
