<?xml version="1.0" encoding="utf-8"?>
<!-- Generator: Adobe Illustrator 19.0.0, SVG Export Plug-In . SVG Version: 6.00 Build 0)  -->
<svg version="1.1" id="Layer_1" xmlns="http://www.w3.org/2000/svg" xmlns:xlink="http://www.w3.org/1999/xlink" x="0px" y="0px"
	 viewBox="0 0 500 500" style="enable-background:new 0 0 500 500;" xml:space="preserve">
<style type="text/css">
	.st0{fill:#26265E;stroke:#F8F8F8;stroke-width:8;stroke-miterlimit:10;}
	.st1{fill:#F8F8F8;}
</style>
<g id="XMLID_1_">
	<path id="XMLID_39_" class="st0" d="M50.1,206.9c-0.2-3.7-0.8-7.4-0.5-11c0.9-9.2,6-15.7,13.9-20.2c47.3-27.1,94.7-54.2,141.9-81.4
		c20.2-11.7,42.5-16.7,65-20.7c6.1-1.1,11.7-3.2,17-6.4c8.6-5.2,17.3-10.1,26-15c8.5-4.8,17.1-4.6,25.5,0.2
		c5.7,3.3,11.2,7.1,16.7,10.9c2.3,1.6,4,1.7,6.4,0.2c15.9-9.3,31.9-18.4,47.9-27.5c1.5-0.9,3-1.7,4.6-2.3c4.2-1.6,8.6,0,10.6,3.7
		c2,3.8,0.9,8.4-2.7,11c-1,0.7-2,1.3-3.1,1.8c-16.2,9.3-32.4,18.6-48.6,27.8c-2.5,1.4-3.6,2.9-3.3,5.9c0.6,5.4,0.6,10.9,1,16.3
		c1,12.2-4,21.1-14.6,27.1c-4.9,2.7-9.6,5.9-14.6,8.3c-12.4,6-22.6,14.5-31.3,25.3c-14.1,17.5-31.4,31.3-51.4,41.7
		c-5.9,3.1-11.5,6.6-17.5,10c1.1,2.8,2.1,5.4,3.1,7.9c8.8-4,12.8-2.1,15.4,6.9c2.8,9.7,5.5,19.4,8.3,29.1c1.4,4.6,0.7,8.3-3.1,11.5
		c-0.8,0.7-1.3,2.6-1,3.5c3.7,10.1,7.7,20.1,11.5,30.2c0.9,2.3,2.2,2.4,4.3,2.2c15.4-1.9,30.9-3.6,46.4-5.4c1.4-0.2,2.9-0.3,4.6,0
		c-49.7,28.5-98.6,55.2-149,84.1c0.7-1.7,0.5-1.3,1-2.5c3.7-8.7,7.6-17.3,11.1-26.1c0.6-1.4,0.6-3.4,0.1-4.8
		c-11-28.8-22.1-57.7-33.1-86.5c-0.4-1-1-1.8-1.7-3.1c-5.6,3.2-11.1,6.4-16.6,9.5c-5.8,3.3-11.6,6.6-17.3,9.9
		c-11.5,6.6-22.5,5.4-32.3-3.4c-0.5-0.4-1.1-0.7-1.6-1.1C76.1,252.2,63.1,229.6,50.1,206.9z M306.5,105.5c-2.7-4.6-5.3-9.3-8-13.9
		c-2.9-5-7.3-6.5-11.7-4.2c-4.4,2.3-5.9,7.1-3.3,12c5.3,9.7,10.8,19.3,16.5,28.8c2.9,4.7,8,5.8,12.1,3.1c4-2.6,4.9-7.2,2.2-12
		C311.9,114.7,309.2,110.1,306.5,105.5z"/>
	<path id="XMLID_38_" class="st0" d="M344.5,308.9c0.8,1.4,1.5,2.6,2.2,3.9c8.7,15.2,16.9,30.6,26.2,45.4
		c7.6,12.2,6.1,29.5-10.5,38.8c-32.4,18.2-64.6,36.9-96.9,55.4c-6.7,3.8-13.5,7.6-20.2,11.4c-10,5.6-25.5,4.3-33.8-9.4
		c-10.2-16.7-19.6-33.9-29.3-51c-0.2-0.3-0.2-0.8-0.3-1.4C235.9,371,290,340,344.5,308.9z"/>
	<path id="XMLID_37_" class="st1" d="M134.4,173.4c10-5.7,19.9-11.6,30-17.1c8.4-4.6,16.1-2.9,15.8,3.7c-0.1,2.7-2.7,6.1-4.8,8.9
		c-1.1,1.5-3.6,2.5-5.5,3.6c-18.1,10.4-36.1,20.7-54.2,31c-2.7,1.5-5.6,3.1-8.5,3.9c-4.7,1.3-9-0.7-10.2-4.2
		c-1.2-3.6,0.5-8.1,5.2-10.9c10.7-6.4,21.6-12.4,32.4-18.6C134.5,173.5,134.5,173.5,134.4,173.4z"/>
	<path id="XMLID_36_" class="st1" d="M158.6,216c-9.7,5.5-19.3,11.1-29,16.6c-7.3,4.2-13.3,4-16-0.2c-2.7-4.3,1.3-10.8,8.6-15.1
		c19.5-11.3,37.8-21.7,57.4-32.8c7.3-4.1,14-3.7,16.3,0.6c2.4,4.4-0.8,9.9-8.3,14.3C177.9,204.9,168.2,210.4,158.6,216z"/>
	<path id="XMLID_35_" class="st1" d="M306.1,104.6c2.6,4.6,5.3,9.2,7.9,13.9c2.6,4.8,1.7,9.4-2.3,12c-4.1,2.6-9.2,1.6-12.1-3.2
		c-5.7-9.5-11.2-19.1-16.5-28.8c-2.7-4.9-1.1-9.7,3.3-12c4.4-2.3,8.7-0.8,11.7,4.2C300.8,95.4,303.5,100,306.1,104.6z"/>
</g>
<path id="XMLID_3_" class="st1" d="M81.1,204.1l24.2,42.3c0,0-17.9,7.8-31.2-15.6C64.6,214.2,81.1,204.1,81.1,204.1z"/>
</svg>
