<?xml version="1.0" encoding="utf-8"?>
<!-- Generator: Adobe Illustrator 19.0.0, SVG Export Plug-In . SVG Version: 6.00 Build 0)  -->
<svg version="1.1" xmlns="http://www.w3.org/2000/svg" xmlns:xlink="http://www.w3.org/1999/xlink" x="0px" y="0px"
	 viewBox="0 0 100 100" style="enable-background:new 0 0 100 100;" xml:space="preserve">
<style type="text/css">
	.st0{fill:#F8F8F8;}
</style>
<g id="Layer_2">
</g>
<g id="Layer_1">
	<g id="XMLID_1_">
		<path id="XMLID_33_" class="st0" d="M23.1,51.4c0-10.5,0.1-21.1,0-31.6c0-2.2,0.6-2.8,2.8-2.8c10.3,0.1,20.5,0.1,30.8,0
			c2,0,2.5,0.6,2.6,2.6c0.1,4.8-0.4,9.6,0.3,14.4c0.2,1.6,0.8,2.1,2.3,2c4.8-0.1,9.6,0,14.4,0c1.8,0,2.4,0.6,2.3,2.3
			c-0.1,15.1-0.1,30.1,0,45.2c0,1.8-0.6,2.3-2.4,2.3c-16.9-0.1-33.9-0.1-50.8,0c-1.8,0-2.3-0.6-2.3-2.4
			C23.2,72.8,23.1,62.1,23.1,51.4z M54.9,40.6C54.9,40.6,54.9,40.5,54.9,40.6c-5.2-0.1-10.5-0.1-15.7,0c-0.9,0-1.9,0-1.9,1.2
			c0,1.2,1,1.2,1.9,1.2c10.5,0,21,0,31.6,0c0.8,0,2,0.1,1.9-1.1c0-1.2-1.1-1.3-2.1-1.2C65.4,40.6,60.2,40.6,54.9,40.6z M54.8,51.1
			C54.8,51.1,54.8,51.1,54.8,51.1c4.4,0,8.7,0,13.1,0c1,0,2,0,3,0c0.8,0,1.7-0.1,1.7-1.2c0-1.1-0.9-1.1-1.7-1.1c-0.5,0-1,0-1.5,0
			c-7.1,0-14.2,0-21.3,0c-2.9,0-5.9,0-8.8,0c-0.9,0-1.9,0.3-1.9,1.3c0,1.2,1.1,1,2,1C44.5,51.1,49.7,51.1,54.8,51.1z M54.9,73.7
			C54.9,73.7,54.9,73.7,54.9,73.7c-5.1,0-10.2,0-15.3,0c-1,0-2.1-0.2-2,1.2c0,1.2,1.1,1.2,2,1.2c10.4,0,20.8,0,31.2,0
			c0.9,0,1.9,0,1.8-1.2c-0.1-1.2-1-1.1-1.9-1.1C65.4,73.7,60.2,73.7,54.9,73.7z M54.9,65.6c-5.2,0-10.3,0-15.5,0c-0.8,0-2-0.2-2,1
			c0,1.2,1.1,1.3,2.1,1.3c10.3,0,20.7,0,31,0c1,0,2.1-0.2,2-1.4c-0.1-1.2-1.3-0.9-2.1-0.9C65.3,65.5,60.1,65.6,54.9,65.6z
			 M54.9,59.3C54.9,59.3,54.9,59.3,54.9,59.3c5.3,0,10.6,0,15.9,0c0.7,0,1.6,0,1.7-0.9c0.1-1-0.7-1.3-1.6-1.4c-0.4,0-0.9,0-1.3,0
			c-9.6,0-19.2,0-28.8,0c-0.5,0-1,0-1.5,0c-0.9,0.1-1.6,0.5-1.5,1.4c0.1,0.9,0.9,0.9,1.7,0.9C44.6,59.3,49.8,59.3,54.9,59.3z
			 M34.5,37.3c0.3,0,0.6,0,0.9,0c4.4,0,4.4,0,4.5-4.4c0.2-6,0.2-6.1-5.7-6c-6,0-5.2-0.7-5.1,5.1C29.1,38.2,28.2,37.2,34.5,37.3z"/>
		<path id="XMLID_32_" class="st0" d="M69,33.7c-1.8,0-3.6,0-5.4,0c-1,0-1.7-0.3-1.7-1.5c0-3.7,0-7.4,0-11.2c0-0.3,0.1-0.8,0.3-0.9
			c0.5-0.3,0.8,0.2,1.1,0.5c3.9,3.9,7.8,7.8,11.7,11.7c0.3,0.3,0.7,0.6,0.5,1.1c-0.2,0.4-0.8,0.3-1.2,0.3
			C72.5,33.7,70.7,33.7,69,33.7C69,33.7,69,33.7,69,33.7z"/>
		<path id="XMLID_31_" class="st0" d="M34.3,35c-2.8,0-3-0.1-3-3.1c0-2.7,0.2-2.8,3-2.8c2.8,0,2.9,0.2,2.9,3.1
			C37.2,35,37.2,35,34.3,35z"/>
	</g>
</g>
</svg>
