<?xml version="1.0" encoding="utf-8"?>
<!-- Generator: Adobe Illustrator 19.0.0, SVG Export Plug-In . SVG Version: 6.00 Build 0)  -->
<svg version="1.1" id="Layer_1" xmlns="http://www.w3.org/2000/svg" xmlns:xlink="http://www.w3.org/1999/xlink" x="0px" y="0px"
	 viewBox="0 0 500 500" style="enable-background:new 0 0 500 500;" xml:space="preserve">
<style type="text/css">
	.st0{fill:#26265E;}
	.st1{fill:#F8F8F8;}
</style>
<g id="XMLID_1_">
	<path id="XMLID_109_" class="st0" d="M250.3,419.7c-43.3,0-86.6,0-130,0c-9.3,0-11-1.7-11-11.1c0-73.8-0.1-147.6,0-221.4
		c0.1-35.1,0.5-70.3,0.7-105.4c0-6.1,1.6-7.7,7.7-7.7c58.5,0,117-0.1,175.4,0.1c2.5,0,5.6,1.3,7.4,3.1c29.1,28.8,58.1,57.8,86.9,87
		c2.1,2.1,3.5,5.8,3.5,8.8c0.2,79,0.2,158,0.1,236.9c0,7.5-2.4,9.8-10,9.8C337.6,419.7,294,419.7,250.3,419.7z M288.7,87.3
		c-56,0-111.2,0-166.3,0c0,106.7,0,212.9,0,319.1c85.4,0,170.4,0,255.4,0c0-76.8,0-153.2,0-230.1c-2.1,0-3.9,0-5.7,0
		c-24.7,0-49.3,0-74,0c-7.8,0-9.3-1.5-9.3-9.4c0-24.7,0-49.3,0-74C288.7,91.1,288.7,89.3,288.7,87.3z M366.8,163.5
		c-21.7-21.7-43.7-43.6-65.5-65.5c0,0.5,0,1.6,0,2.7c0,19.3,0.1,38.6-0.1,57.9c-0.1,4.3,1.5,5.2,5.4,5.2c19-0.2,37.9-0.1,56.9-0.1
		C365,163.7,366.4,163.5,366.8,163.5z"/>
	<path id="XMLID_96_" class="st1" d="M288.7,87.3c0,2,0,3.8,0,5.6c0,24.7,0,49.3,0,74c0,7.9,1.5,9.4,9.3,9.4c24.7,0,49.3,0,74,0
		c1.8,0,3.6,0,5.7,0c0,76.9,0,153.3,0,230.1c-85,0-170,0-255.4,0c0-106.2,0-212.5,0-319.1C177.5,87.3,232.7,87.3,288.7,87.3z
		 M269.5,234c-25.1,0-50.3,0-75.4,0c-4.8,0-8.2,2.9-7.8,6.6c0.5,4.4,3.4,6.2,7.6,6.3c0.8,0,1.7,0,2.5,0c48.6,0,97.2,0,145.8,0
		c2.1,0,4.6,0.1,6.3-0.9c1.7-1.1,3.6-3.4,3.7-5.2c0.1-1.9-1.5-4.4-3.1-5.6c-1.5-1.1-4.1-1.1-6.2-1.1C318.4,234,293.9,234,269.5,234z
		 M269.5,285.1c24.8,0,49.6,0,74.4,0c5.5,0,8.4-2.2,8.5-6.2c0.1-4.1-2.8-6.3-8.3-6.6c-0.7,0-1.3,0-2,0c-48.6,0-97.2,0-145.8,0
		c-1.8,0-4.1-0.3-5.3,0.6c-2,1.6-4.5,4.1-4.4,6.1c0.1,2,3,4.2,5.1,5.7c1.1,0.8,3.2,0.3,4.9,0.3C220.9,285.1,245.2,285.1,269.5,285.1
		z M269.5,310.9c-13.2,0-26.3,0-39.5,0c-12.2,0-24.3,0-36.5,0c-4.1,0-6.9,1.9-7.2,6c-0.3,4.2,2.5,6.2,6.5,6.8c1,0.1,2,0.1,3,0.1
		c48.9,0,97.9,0,146.8,0c1.5,0,3-0.1,4.4-0.4c3.6-0.8,5.6-3.1,5.2-6.8c-0.3-3.4-2.5-5.3-5.9-5.6c-1.5-0.1-3-0.1-4.5-0.1
		C317.8,310.9,293.6,310.9,269.5,310.9z M269,362c9.7,0,19.3,0,29,0c15.3,0,30.6,0,45.9,0c5.4,0,8.5-2.3,8.6-6.2
		c0.1-4.2-3-6.6-8.7-6.7c-0.5,0-1,0-1.5,0c-48.6,0-97.2,0-145.8,0c-1.8,0-4.1-0.4-5.3,0.6c-2,1.6-4.6,4.2-4.5,6.2
		c0.1,2.1,3,4.2,5,5.8c1,0.7,2.9,0.3,4.4,0.3C220.4,362,244.7,362,269,362z M269,208.3c24.3,0,48.7,0,73,0c1.7,0,3.3,0,5-0.2
		c3.5-0.5,5.8-2.8,5.2-6.1c-0.5-2.3-2.8-4.4-4.8-5.9c-1.1-0.8-3.2-0.4-4.9-0.4c-48.7,0-97.3,0-146,0c-1.5,0-3,0-4.5,0.2
		c-3.8,0.4-5.8,2.9-5.6,6.4c0.1,3.3,2.1,5.6,5.7,5.9c1.7,0.1,3.3,0.1,5,0.1C221,208.3,245,208.3,269,208.3z M147.9,157.1
		c0,6.2,0,12.3,0,18.5c0,4.7,2.5,7.2,7,7.3c12.3,0.2,24.6,0.2,36.9,0c4.4-0.1,7.1-2.6,7.1-7.3c0-12.1,0.1-24.3,0-36.4
		c0-5.1-2.2-7.3-7.3-7.3c-12.1-0.1-24.3-0.1-36.4,0c-5.1,0-7.2,2.2-7.3,7.3C147.8,145.1,147.9,151.1,147.9,157.1z M160.6,246.8
		C160.6,246.8,160.6,246.7,160.6,246.8c2.3-0.1,4.7,0.2,7-0.1c3.5-0.6,5.7-2.7,5.6-6.5c-0.1-3.8-2.5-5.8-6-6c-4.3-0.3-8.7-0.3-13,0
		c-3.6,0.2-6,2.3-6.1,6c-0.1,4,2.4,6.1,6.1,6.6C156.2,247,158.4,246.8,160.6,246.8z M160.6,362c2,0,4,0.1,6,0c3.7-0.3,6.3-2,6.5-6
		c0.2-4-2.2-6.3-5.9-6.6c-4.4-0.4-8.9-0.4-13.4,0c-3.7,0.4-6.1,2.7-5.8,6.7c0.2,3.7,2.6,5.6,6.2,5.9
		C156.3,362.1,158.5,362,160.6,362z M160.4,285C160.4,285,160.4,285,160.4,285c2.5,0,5.3,0.7,7.4-0.2c2.2-1,4.8-3.6,5-5.6
		c0.1-2-2.4-5.7-4.1-6c-5.2-0.8-10.6-0.9-15.8-0.1c-1.9,0.3-4.2,3.6-4.7,5.9c-0.6,3.3,1.8,5.6,5.3,6
		C155.8,285.2,158.1,285,160.4,285z M160.7,310.9C160.7,310.9,160.7,310.9,160.7,310.9c-2.2,0-4.3-0.1-6.5,0c-3.7,0.2-6,2.2-6.2,5.9
		c-0.3,3.8,2,6.2,5.5,6.5c4.8,0.4,9.6,0.4,14.4-0.1c3.6-0.3,5.5-2.9,5.2-6.7c-0.3-3.5-2.5-5.3-5.9-5.6
		C165,310.8,162.9,310.9,160.7,310.9z M160.9,195.9c-2.5,0-5-0.2-7.5,0.1c-3.5,0.4-5.4,2.6-5.4,6.1c0,3.4,1.9,5.8,5.3,6.1
		c4.8,0.3,9.6,0.3,14.4,0c3.4-0.2,5.3-2.5,5.3-6c0-3.5-1.9-5.7-5.3-6.1C165.5,195.6,163.2,195.9,160.9,195.9z"/>
	<path id="XMLID_95_" class="st1" d="M366.8,163.5c-0.5,0-1.9,0.2-3.3,0.2c-19,0-37.9-0.1-56.9,0.1c-4,0-5.5-0.8-5.4-5.2
		c0.2-19.3,0.1-38.6,0.1-57.9c0-1.1,0-2.2,0-2.7C323.2,119.8,345.1,141.8,366.8,163.5z"/>
	<path id="XMLID_94_" class="st0" d="M269.5,234c24.5,0,48.9,0,73.4,0c2.1,0,4.7,0,6.2,1.1c1.6,1.2,3.2,3.7,3.1,5.6
		c-0.1,1.9-1.9,4.2-3.7,5.2c-1.7,1-4.2,0.9-6.3,0.9c-48.6,0-97.2,0-145.8,0c-0.8,0-1.7,0-2.5,0c-4.2-0.1-7.1-1.9-7.6-6.3
		c-0.4-3.7,3-6.5,7.8-6.6C219.2,234,244.3,234,269.5,234z"/>
	<path id="XMLID_93_" class="st0" d="M269.5,285.1c-24.3,0-48.6,0-72.9,0c-1.7,0-3.8,0.5-4.9-0.3c-2.1-1.5-4.9-3.7-5.1-5.7
		c-0.1-2,2.4-4.6,4.4-6.1c1.2-1,3.5-0.6,5.3-0.6c48.6,0,97.2,0,145.8,0c0.7,0,1.3,0,2,0c5.5,0.2,8.4,2.5,8.3,6.6
		c-0.1,4-3,6.2-8.5,6.2C319.1,285.1,294.3,285.1,269.5,285.1z"/>
	<path id="XMLID_92_" class="st0" d="M269.5,310.9c24.1,0,48.3,0,72.4,0c1.5,0,3,0,4.5,0.1c3.4,0.3,5.6,2.2,5.9,5.6
		c0.4,3.7-1.6,6-5.2,6.8c-1.4,0.3-3,0.4-4.4,0.4c-48.9,0-97.9,0-146.8,0c-1,0-2,0-3-0.1c-4-0.5-6.8-2.6-6.5-6.8c0.3-4.1,3.1-6,7.2-6
		c12.2,0,24.3,0,36.5,0C243.2,310.9,256.3,310.9,269.5,310.9z"/>
	<path id="XMLID_91_" class="st0" d="M269,362c-24.3,0-48.6,0-72.9,0c-1.5,0-3.4,0.5-4.4-0.3c-2.1-1.6-4.9-3.8-5-5.8
		c-0.1-2,2.5-4.6,4.5-6.2c1.2-0.9,3.5-0.6,5.3-0.6c48.6,0,97.2,0,145.8,0c0.5,0,1,0,1.5,0c5.7,0.1,8.8,2.5,8.7,6.7
		c-0.1,4-3.1,6.2-8.6,6.2c-15.3,0-30.6,0-45.9,0C288.3,362,278.6,362,269,362z"/>
	<path id="XMLID_90_" class="st0" d="M269,208.3c-24,0-48,0-72,0c-1.7,0-3.3,0-5-0.1c-3.6-0.3-5.6-2.6-5.7-5.9
		c-0.1-3.5,1.9-6,5.6-6.4c1.5-0.2,3-0.2,4.5-0.2c48.7,0,97.3,0,146,0c1.7,0,3.8-0.5,4.9,0.4c2,1.5,4.4,3.7,4.8,5.9
		c0.6,3.2-1.7,5.6-5.2,6.1c-1.6,0.2-3.3,0.2-5,0.2C317.7,208.3,293.4,208.3,269,208.3z"/>
	<path id="XMLID_87_" class="st0" d="M147.9,157.1c0-6-0.1-12,0-18c0.1-5.1,2.1-7.3,7.3-7.3c12.1-0.1,24.3-0.1,36.4,0
		c5.1,0,7.3,2.3,7.3,7.3c0.1,12.1,0.1,24.3,0,36.4c0,4.7-2.7,7.2-7.1,7.3c-12.3,0.2-24.6,0.2-36.9,0c-4.5-0.1-7-2.6-7-7.3
		C147.9,169.4,147.9,163.2,147.9,157.1z M185.8,169.7c0-8.5,0-16.7,0-24.9c-8.5,0-16.6,0-24.9,0c0,8.5,0,16.6,0,24.9
		C169.2,169.7,177.3,169.7,185.8,169.7z"/>
	<path id="XMLID_86_" class="st0" d="M160.6,246.8c-2.2,0-4.4,0.2-6.5-0.1c-3.7-0.5-6.2-2.5-6.1-6.6c0.1-3.8,2.5-5.8,6.1-6
		c4.3-0.3,8.7-0.3,13,0c3.5,0.2,5.9,2.2,6,6c0.1,3.8-2,5.9-5.6,6.5C165.3,247,162.9,246.7,160.6,246.8
		C160.6,246.7,160.6,246.8,160.6,246.8z"/>
	<path id="XMLID_85_" class="st0" d="M160.6,362c-2.1,0-4.3,0.1-6.4,0c-3.6-0.3-5.9-2.2-6.2-5.9c-0.3-4,2.1-6.4,5.8-6.7
		c4.4-0.4,8.9-0.4,13.4,0c3.7,0.3,6.1,2.6,5.9,6.6c-0.2,4.1-2.8,5.8-6.5,6C164.6,362.1,162.6,362,160.6,362z"/>
	<path id="XMLID_84_" class="st0" d="M160.4,285c-2.3,0-4.7,0.2-7-0.1c-3.4-0.4-5.9-2.7-5.3-6c0.4-2.3,2.8-5.6,4.7-5.9
		c5.2-0.8,10.6-0.8,15.8,0.1c1.8,0.3,4.3,4,4.1,6c-0.1,2-2.8,4.6-5,5.6C165.8,285.7,162.9,285,160.4,285
		C160.4,285,160.4,285,160.4,285z"/>
	<path id="XMLID_83_" class="st0" d="M160.7,310.9c2.2,0,4.3-0.1,6.5,0c3.4,0.3,5.6,2.1,5.9,5.6c0.3,3.8-1.6,6.4-5.2,6.7
		c-4.8,0.5-9.6,0.5-14.4,0.1c-3.5-0.3-5.7-2.7-5.5-6.5c0.2-3.7,2.5-5.7,6.2-5.9C156.4,310.8,158.5,310.9,160.7,310.9
		C160.7,310.9,160.7,310.9,160.7,310.9z"/>
	<path id="XMLID_82_" class="st0" d="M160.9,195.9c2.3,0,4.7-0.2,7,0.1c3.4,0.4,5.3,2.6,5.3,6.1c0,3.5-1.9,5.8-5.3,6
		c-4.8,0.3-9.6,0.3-14.4,0c-3.5-0.2-5.3-2.6-5.3-6.1c0-3.4,1.9-5.7,5.4-6.1C155.8,195.6,158.4,195.9,160.9,195.9z"/>
	<path id="XMLID_81_" class="st1" d="M185.8,169.7c-8.5,0-16.6,0-24.9,0c0-8.3,0-16.4,0-24.9c8.2,0,16.4,0,24.9,0
		C185.8,153,185.8,161.2,185.8,169.7z"/>
</g>
</svg>
