<?xml version="1.0" encoding="utf-8"?>
<!-- Generator: Adobe Illustrator 19.0.0, SVG Export Plug-In . SVG Version: 6.00 Build 0)  -->
<svg version="1.1" xmlns="http://www.w3.org/2000/svg" xmlns:xlink="http://www.w3.org/1999/xlink" x="0px" y="0px"
	 viewBox="0 0 100 100" style="enable-background:new 0 0 100 100;" xml:space="preserve">
<style type="text/css">
	.st0{fill:#F8F8F8;}
</style>
<g id="Layer_2">
</g>
<g id="Layer_1">
	<g id="XMLID_1_">
		<path id="XMLID_24_" class="st0" d="M76.3,71.8c0-14.7,0-29.3,0-44c-11.2,0-22.2,0-33.6,0c0,2.9,0,5.9,0,8.8
			c0,2.3-1.3,3.8-3.3,3.9c-1.7,0.1-3.5-1.7-3.5-3.6c-0.1-4.1-0.1-8.3,0-12.4c0.1-2.4,1.6-3.8,4-3.8c13.3,0,26.5,0,39.8,0
			c2.5,0,3.7,1.1,3.7,3.7c0,16.9,0,33.8,0,50.7c0,2.5-1.2,3.6-3.7,3.6c-13.3,0-26.5-0.1-39.8,0.1c-2.3,0-3.9-1.9-4-3.8
			c-0.1-4.1-0.1-8.3,0-12.4c0-2.2,1.7-3.5,4-3.4c1.8,0.1,2.8,1.4,2.8,3.6c0,2.9,0,5.8,0,8.9C53.9,71.8,65,71.8,76.3,71.8z"/>
		<path id="XMLID_23_" class="st0" d="M26.5,53.8c1.1,1,2.2,1.9,3.2,3c1.4,1.4,1.7,3.9,0.6,5.1c-1.1,1.2-3.4,1.6-4.8,0.2
			c-3.4-3.3-6.7-6.8-10-10.3c-1.4-1.5-1.1-3.2,0.2-4.5c3-3.2,6.1-6.3,9.3-9.3c2-1.9,3.5-1.8,5.3,0.2c1.2,1.3,1,3.2-0.6,4.7
			c-1,1-1.9,1.9-2.8,2.9c-0.1,0.1-0.1,0.2-0.2,0.5c0.8,0,1.5,0,2.2,0c11.1,0,22.2,0,33.2,0c2.4,0,3.9,1.1,4.1,2.9
			c0.3,2.6-1.1,4-3.7,4c-11.9,0-23.8,0-35.7,0C26.7,53.4,26.6,53.6,26.5,53.8z"/>
	</g>
</g>
</svg>
