<?xml version="1.0" encoding="utf-8"?>
<!-- Generator: Adobe Illustrator 19.0.0, SVG Export Plug-In . SVG Version: 6.00 Build 0)  -->
<svg version="1.1" id="Layer_1" xmlns="http://www.w3.org/2000/svg" xmlns:xlink="http://www.w3.org/1999/xlink" x="0px" y="0px"
	 viewBox="0 0 500 500" style="enable-background:new 0 0 500 500;" xml:space="preserve">
<style type="text/css">
	.st0{fill:#F8F8F8;}
</style>
<g id="XMLID_1_">
	<path id="XMLID_22_" class="st0" d="M30.8,242.2c1.8-5.7,5.6-9.9,9.7-14c18-17.9,35.9-35.9,53.8-53.7c8.6-8.5,19.3-9.5,27.7-2.8
		c8.7,7,10.3,19.4,2.9,27.7c-7,7.9-14.7,15.1-22.2,22.6c-1.2,1.2-2.8,2.1-4.3,3.1c0.3,0.5,0.5,0.9,0.8,1.4c1.6,0,3.1,0,4.7,0
		c73.9,0,147.7,0,221.6,0c10.4,0,17.8,5.5,20.4,15.1c3.1,11.4-5.7,23.6-17.5,24.3c-1.6,0.1-3.3,0.1-4.9,0.1c-73,0-146.1,0-219.1,0
		c-1.6,0-3.2,0-5.7,0c1.3,1.5,2.1,2.5,3,3.4c7.2,7.2,14.5,14.2,21.5,21.6c11.4,12,6.8,29.7-8.8,33.7c-5.9,1.5-11.4,0.3-16.3-3.3
		c-1.3-1-2.5-2.1-3.7-3.2c-18.9-18.9-37.9-37.7-56.6-56.8c-3-3-4.7-7.3-6.9-10.9C30.8,247.7,30.8,245,30.8,242.2z"/>
	<path id="XMLID_21_" class="st0" d="M202,384.3c70.2,0,140.1,0,210.1,0c0-92,0-183.9,0-275.9c-70,0-139.8,0-210.3,0
		c0,1.4,0,2.8,0,4.2c0,18.2,0.1,36.4,0,54.7c0,10.2-7.6,18.7-17.3,19.7c-10.3,1.1-19.3-5.3-21.6-15.4c-0.4-1.8-0.4-3.8-0.4-5.7
		c0-25.3,0-50.7,0-76c0-12.9,8.2-21.1,21-21.1c82.5,0,165,0,247.5,0c12.8,0,21,8.2,21,21.1c0,104.3,0,208.5,0,312.8
		c0,13.1-8.1,21.2-21.2,21.3c-82.3,0-164.7,0-247,0c-12.9,0-21.1-8.1-21.1-21c0-25.9-0.1-51.8,0-77.7c0-10.2,7.7-18.7,17.4-19.6
		c10.3-1,19.3,5.4,21.6,15.5c0.4,2,0.4,4.1,0.4,6.1c0,18.2,0,36.4,0,54.7C201.8,382.6,201.9,383.3,202,384.3z"/>
</g>
</svg>
