<?xml version="1.0" encoding="utf-8"?>
<!-- Generator: Adobe Illustrator 19.0.0, SVG Export Plug-In . SVG Version: 6.00 Build 0)  -->
<svg version="1.1" id="Layer_1" xmlns="http://www.w3.org/2000/svg" xmlns:xlink="http://www.w3.org/1999/xlink" x="0px" y="0px"
	 viewBox="49.7 221 360.1 83.1" style="enable-background:new 49.7 221 360.1 83.1;" xml:space="preserve">
<style type="text/css">
	.st0{fill:none;stroke:#F8F8F8;stroke-width:5;stroke-miterlimit:10;}
	.st1{display:none;enable-background:new    ;}
	.st2{font-family:'UraeNium';}
	.st3{font-size:43px;}
	.st4{font-family:'SurfQuestCompact';}
	.st5{font-size:78.3611px;}
	.st6{fill:#F8F8F8;}
	.st7{fill:#26265E;}
</style>
<polyline id="XMLID_6_" class="st0" points="175.3,247.8 143.2,229.7 111,247.8 "/>
<text id="XMLID_1_" transform="matrix(1 0 0 1 60.2822 100.7437)" class="st1 st3" style="font-family:'Juzif-Black---All-Caps-Demo---Personal-Use-Only';">COMMANDER CARE</text>
<text id="XMLID_2_" transform="matrix(1 0 0 1 62.8462 171.8975)" class="st1 st4 st3">COMMANDER CARE</text>
<text id="XMLID_3_" transform="matrix(1 0 0 1 64.1284 261.6406)" class="st1 st2 st3">COMMANDER CARE</text>
<text id="XMLID_4_" transform="matrix(1 0 0 1 52.59 143.9188)" class="st1" style="font-family:'HeadlineOneHPLHS'; font-size:68.8794px;">COMMANDER CARE</text>
<text id="XMLID_5_" transform="matrix(1 0 0 1 57.718 298.4342)" class="st1 st4 st5">Commander Care</text>
<g id="XMLID_8_">
	<path id="XMLID_9_" class="st6" d="M70.6,289.9c0,1.3,0.6,1.9,1.7,1.9h7.4v6.7H65.2c-1.8,0-3.3-0.7-4.3-2s-1.6-2.8-1.6-4.4v-49.3
		c0-1.6,0.5-3.1,1.6-4.4c1-1.3,2.5-2,4.3-2h14.6v6.7h-7.4c-1.1,0-1.7,0.6-1.7,1.9L70.6,289.9L70.6,289.9z"/>
	<path id="XMLID_11_" class="st6" d="M105.7,293c0,1.4-0.4,2.6-1.3,3.7s-2.1,1.7-3.7,1.7H88c-1.6,0-2.8-0.6-3.7-1.7
		c-0.9-1.1-1.3-2.4-1.3-3.7v-42.2c0-1.4,0.4-2.6,1.3-3.7c0.9-1.1,2.1-1.7,3.7-1.7h12.7c1.6,0,2.8,0.6,3.7,1.7
		c0.9,1.1,1.3,2.4,1.3,3.7V293z M94.8,292.7c0.8-0.1,1.3-0.6,1.3-1.6v-38.4c0-0.9-0.4-1.5-1.3-1.6h-0.6c-1,0-1.5,0.5-1.5,1.6v38.4
		c0,1,0.5,1.6,1.5,1.6H94.8z"/>
	<path id="XMLID_14_" class="st6" d="M141.5,298.4h-9.6v-28.2l-6.7,19l-6.6-19.5v28.7H109v-53h10.3l5.9,19l6-19h10.3L141.5,298.4
		L141.5,298.4z"/>
	<path id="XMLID_16_" class="st6" d="M177.3,298.4h-9.6v-28.2l-6.7,19l-6.6-19.5v28.7h-9.6v-53H155l5.9,19l6-19h10.3v53H177.3z"/>
	<path id="XMLID_18_" class="st6" d="M203.2,298.4h-9.6v-21h-3.4v21h-9.6v-47.6c0-1.4,0.4-2.6,1.3-3.7c0.9-1.1,2.1-1.7,3.7-1.7h12.7
		c1.6,0,2.8,0.6,3.7,1.7c0.9,1.1,1.3,2.4,1.3,3.7L203.2,298.4L203.2,298.4z M191.6,251.2c-1,0-1.5,0.5-1.5,1.6v19h3.4v-19
		c0-1-0.4-1.5-1.3-1.6L191.6,251.2L191.6,251.2z"/>
	<path id="XMLID_21_" class="st6" d="M206.4,245.5h8l5.7,20.1v-20.1h9.6v53h-8l-5.6-22.4v22.4h-9.7V245.5z"/>
	<path id="XMLID_23_" class="st6" d="M255.7,293c0,1.4-0.4,2.6-1.3,3.7c-0.9,1.1-2.1,1.7-3.7,1.7H233v-53h17.7
		c1.6,0,2.8,0.6,3.7,1.7c0.9,1.1,1.3,2.4,1.3,3.7V293z M244.8,292.7c0.8-0.1,1.3-0.6,1.3-1.6v-38.4c0-0.9-0.4-1.5-1.3-1.6h-2.1v41.5
		h2.1V292.7z"/>
	<path id="XMLID_26_" class="st6" d="M268.6,273.7v19h7.8v5.7H259v-53h17.4v5.7h-7.8V268h7.8v5.7H268.6z"/>
	<path id="XMLID_28_" class="st6" d="M292.6,275.2c0-1-0.4-1.5-1.3-1.6h-2v24.8h-9.7v-53h17.7c1.6,0,2.8,0.6,3.7,1.7
		c0.9,1.1,1.3,2.4,1.3,3.7v16.8c0,0.2-0.1,0.5-0.4,0.8s-0.5,0.7-0.9,1c-0.3,0.3-0.7,0.7-1,0.9c-0.3,0.3-0.6,0.5-0.8,0.6
		c0.2,0.1,0.5,0.3,0.8,0.6c0.3,0.3,0.7,0.6,1,0.9s0.6,0.7,0.9,1s0.4,0.5,0.4,0.7v24.2h-9.7V275.2z M291.3,251.2h-2V268h2.2
		c0.8-0.1,1.2-0.6,1.2-1.6v-13.6C292.6,251.8,292.2,251.3,291.3,251.2z"/>
	<path id="XMLID_31_" class="st6" d="M328.1,289.9c0,1.3,0.6,1.9,1.7,1.9h7.4v6.7h-14.6c-1.8,0-3.3-0.7-4.3-2s-1.6-2.8-1.6-4.4
		v-49.3c0-1.6,0.5-3.1,1.6-4.4c1-1.3,2.5-2,4.3-2h14.6v6.7h-7.4c-1.1,0-1.7,0.6-1.7,1.9V289.9z"/>
	<path id="XMLID_33_" class="st6" d="M363.2,298.4h-9.6v-21h-3.4v21h-9.6v-47.6c0-1.4,0.4-2.6,1.3-3.7c0.9-1.1,2.1-1.7,3.7-1.7h12.7
		c1.6,0,2.8,0.6,3.7,1.7c0.9,1.1,1.3,2.4,1.3,3.7v47.6H363.2z M351.6,251.2c-1,0-1.5,0.5-1.5,1.6v19h3.4v-19c0-1-0.4-1.5-1.3-1.6
		L351.6,251.2L351.6,251.2z"/>
	<path id="XMLID_36_" class="st6" d="M379.5,275.2c0-1-0.4-1.5-1.3-1.6h-2v24.8h-9.7v-53h17.7c1.6,0,2.8,0.6,3.7,1.7
		c0.9,1.1,1.3,2.4,1.3,3.7v16.8c0,0.2-0.1,0.5-0.4,0.8s-0.5,0.7-0.9,1c-0.3,0.3-0.7,0.7-1,0.9c-0.3,0.3-0.6,0.5-0.8,0.6
		c0.2,0.1,0.5,0.3,0.8,0.6c0.3,0.3,0.7,0.6,1,0.9s0.6,0.7,0.9,1s0.4,0.5,0.4,0.7v24.2h-9.7V275.2z M378.2,251.2h-2V268h2.2
		c0.8-0.1,1.2-0.6,1.2-1.6v-13.6C379.5,251.8,379.1,251.3,378.2,251.2z"/>
	<path id="XMLID_39_" class="st6" d="M402,273.7v19h7.8v5.7h-17.4v-53h17.4v5.7H402V268h7.8v5.7H402z"/>
</g>
<rect id="XMLID_7_" x="50" y="234.6" transform="matrix(-0.7071 0.7071 -0.7071 -0.7071 274.4321 365.6801)" class="st7" width="23" height="10.2"/>
<rect id="XMLID_41_" x="310.2" y="290.8" transform="matrix(0.7071 0.7071 -0.7071 0.7071 301.9715 -140.6251)" class="st7" width="21.1" height="6.8"/>
</svg>
