<?xml version="1.0" encoding="utf-8"?>
<!-- Generator: Adobe Illustrator 19.0.0, SVG Export Plug-In . SVG Version: 6.00 Build 0)  -->
<svg version="1.1" xmlns="http://www.w3.org/2000/svg" xmlns:xlink="http://www.w3.org/1999/xlink" x="0px" y="0px"
	 viewBox="0 0 500 500" style="enable-background:new 0 0 500 500;" xml:space="preserve">
<style type="text/css">
	.st0{fill:#26265E;}
	.st1{fill:#F8F8F8;}
</style>
<g id="Layer_2">
	<polygon id="XMLID_3_" class="st0" points="123.4,181.5 123.4,307.2 134.9,322.5 234.9,242.1 138.8,161 	"/>
</g>
<g id="Layer_1">
	<g id="XMLID_1_">
		<path id="XMLID_46_" class="st1" d="M137,315.4c28.3-24.3,56.6-48.5,85.4-73.2c-28.6-24.5-57-48.8-85.3-73.2
			c-0.4,0.1-0.8,0.2-1.2,0.3c0,2.8,0.1,5.5,0,8.3c-0.1,3.1,0,125.7-0.6,128.8c-0.7,3.4-4.2,5.6-7.6,5.4c-3.6-0.2-7-3-7.1-6.5
			c-0.1-6.2-0.4-132,0.6-138.1c2.5-14.4,14.6-24.5,29.3-24.6c23.1-0.2,46.2-0.1,69.4-0.1c55.9,0,111.7,0.2,167.6-0.1
			c17-0.1,28,10.8,31,21.3c1.1,3.8,1.6,7.8,1.6,11.8c0.1,44.6,0.1,89.2,0.1,133.8c0,16.8-9.5,29-25,32.3c-1.9,0.4-4,0.5-6,0.5
			c-79.4,0-158.7,0.1-238.1,0c-15.3,0-27.4-10.1-30-25.2c-1-6-0.7-12.2-0.5-18.3c0.1-3.5,3.7-6.2,7.2-6.4c3.6-0.1,7,2.2,7.6,5.9
			c0.6,3.4,0.4,7,0.5,10.4c0.1,2.2,0,4.4,0,6.6C136.2,315.1,136.6,315.2,137,315.4z M148.3,158.1c1.4,1.3,2.2,2.1,3,2.8
			c37.1,31.8,74.2,63.5,111.3,95.3c6,5.2,8.9,5.2,14.9,0c36.6-31.3,73.3-62.7,109.9-94.1c1.3-1.1,2.6-2.3,4.5-4
			C310.5,158.1,229.8,158.1,148.3,158.1z M148.1,326.2c81.8,0,162.4,0,244,0c-29.2-25.1-57.7-49.5-86.3-74
			c-6.8,5.9-13.3,11.6-19.8,17.3c-4.5,3.9-9.4,6.4-15.5,6.4c-5.8,0.1-10.8-1.8-15.1-5.5c-7-6-13.9-12.1-21-18.2
			C205.7,276.9,177.3,301.2,148.1,326.2z M404,168.3c-29.1,25-57.5,49.3-86.1,73.8c28.7,24.6,57.1,48.9,86.1,73.8
			C404,266.5,404,217.8,404,168.3z"/>
		<path id="XMLID_43_" class="st0" d="M148.3,158.1c81.5,0,162.2,0,243.7,0c-1.9,1.7-3.2,2.8-4.5,4c-36.6,31.4-73.3,62.7-109.9,94.1
			c-6,5.2-8.9,5.2-14.9,0c-37.1-31.7-74.2-63.5-111.3-95.3C150.5,160.1,149.7,159.4,148.3,158.1z"/>
		<path id="XMLID_42_" class="st0" d="M148.1,326.2c29.1-25,57.6-49.4,86.2-74c7.1,6.1,14,12.2,21,18.2c4.3,3.7,9.3,5.6,15.1,5.5
			c6.1-0.1,11.1-2.5,15.5-6.4c6.5-5.7,13-11.3,19.8-17.3c28.6,24.5,57.1,48.9,86.3,74C310.5,326.2,229.9,326.2,148.1,326.2z"/>
		<path id="XMLID_41_" class="st0" d="M404,168.3c0,49.5,0,98.2,0,147.7c-29.1-24.9-57.4-49.2-86.1-73.8
			C346.5,217.6,374.8,193.3,404,168.3z"/>
	</g>
</g>
</svg>
