<?xml version="1.0" encoding="utf-8"?>
<!-- Generator: Adobe Illustrator 19.0.0, SVG Export Plug-In . SVG Version: 6.00 Build 0)  -->
<svg version="1.1" id="Layer_1" xmlns="http://www.w3.org/2000/svg" xmlns:xlink="http://www.w3.org/1999/xlink" x="0px" y="0px"
	 viewBox="0 0 500 500" style="enable-background:new 0 0 500 500;" xml:space="preserve">
<style type="text/css">
	.st0{fill:#26265E;}
	.st1{fill:#E0E0E0;}
</style>
<g id="XMLID_1_">
	<path id="XMLID_54_" class="st0" d="M78.9,250.8c1.1-2.4,1.9-4.2,2.8-5.9c0.6-1,1.7-1.8,2.6-2.7c49.7-49.7,99.3-99.3,149-149
		c6.8-6.8,10.2-6.7,16.9,0c11.8,11.8,23.7,23.7,35.5,35.5c5.5,5.5,5.6,9.6,0.1,15.1C235.7,194,185.6,244.1,135.5,294.2
		c-5.7,5.7-9.9,5.7-15.7-0.1c-12.2-12.2-24.4-24.3-36.5-36.6C81.5,255.6,80.4,253.1,78.9,250.8z"/>
	<path id="XMLID_53_" class="st1" d="M108.9,300.1c2,1.9,3.7,3.6,5.4,5.2c8.6,7.4,20.1,6.7,28.6-1.8c17.7-17.6,35.4-35.3,53-53
		c1-1,1.8-2.1,3.4-4c0.2,2.2,0.3,3.2,0.3,4.2c0,39.6,0,79.2,0,118.8c0,7.4-4.9,12.7-11.7,12.8c-6.9,0.1-11.9-4.8-12.3-12.3
		c-0.7-12.7-9.3-22.1-21.9-23.6c-10.7-1.3-21.7,6-24.9,16.9c-0.8,2.8-1.2,5.9-1.2,8.8c-0.1,14.1,0,28.2-0.1,42.4
		c0,9.2-6.2,15.8-14.9,15.8c-8.8,0-15.1-6.5-15.1-15.9c0-34.4,0-68.7-0.1-103.1c0-2.8,0.7-4.6,3.2-6
		C103.6,303.9,106,302,108.9,300.1z"/>
	<path id="XMLID_52_" class="st0" d="M348.7,314.4c2.2,1.3,4.5,2,6,3.5c16,15.8,31.8,31.7,47.7,47.7c3.6,3.6,3.5,6.2,0,9.7
		c-10,10-19.9,20-29.9,29.9c-3.4,3.4-6.1,3.3-9.7-0.3c-8.7-8.6-17.3-17.3-26-26c-7-7-13.9-14-20.9-20.9c-4.5-4.5-4.5-6.7-0.2-11
		c10.1-10.1,20.1-20.1,30.2-30.2C346.6,316,347.6,315.3,348.7,314.4z"/>
	<path id="XMLID_51_" class="st0" d="M278.2,104.2c-3.7-3.7-6.6-6.7-9.8-9.9c6.8-7.3,15.2-11.2,25-11.8c11-0.7,20.7,2.9,28.6,10.6
		c7.9,7.7,15.7,15.4,23.3,23.4c14,14.7,14.1,36.5,0.3,51.5c-22.3,24.3-44.6,48.6-67,72.9c-9.4,10.2-9.2,21.6,0.6,31.5
		c4.6,4.6,9.2,9.1,14,13.9c-3.4,3-6.6,5.9-10.1,9c-7.3-8-17.3-14.6-21.1-26.3c-4.6-14-2.3-26.8,7.5-37.7
		c21.7-24,43.7-47.7,65.6-71.6c1.2-1.3,2.4-2.5,3.5-3.9c7-8.3,7.1-19.4-0.4-27.2c-9.2-9.7-18.7-19.2-28.4-28.4
		c-8.2-7.8-20.2-7.4-28.5,0.2C280.2,101.4,279.4,102.7,278.2,104.2z"/>
	<path id="XMLID_50_" class="st0" d="M428.3,395.4c-0.9,1.5-1.6,3.6-3,5.1c-9.2,9.3-18.5,18.6-27.8,27.8c-3.2,3.1-8.5,3.3-11.5,0
		c-2.7-3-5.1-6.3-7.3-9.6c-0.5-0.7,0.1-2.7,0.8-3.4c10.9-11,21.8-21.9,32.8-32.9c2.7-2.7,5.3-0.6,7.3,0.8c2.7,1.9,5,4.5,7.2,7.1
		C427.6,391.2,427.6,393,428.3,395.4z"/>
	<path id="XMLID_49_" class="st0" d="M332.8,295.2c1.1,1.3,2.6,3,4,4.8c2.3,3,3.4,6.1,0,9.3c-10.3,9.8-20.2,20-30.2,30
		c-3.1,3.1-5.9,3.1-9.2,0.2c-1.7-1.5-3.4-3-4.7-4.1C306,321.9,319,308.9,332.8,295.2z"/>
	<path id="XMLID_48_" class="st0" d="M290,318.1c-4.3-11.6,5.6-17.1,12.4-23.9c4-4,9.2-0.6,13.7-2
		C307.1,301.1,298.4,309.8,290,318.1z"/>
	<path id="XMLID_47_" class="st0" d="M81.9,284.8c1.3-2,2.9-4.3,4.3-6.5c4.5,4.5,8.8,8.9,13.4,13.6c-1.9,1.3-4.3,2.9-6.4,4.3
		C89.5,292.5,85.9,288.8,81.9,284.8z"/>
</g>
</svg>
