<?xml version="1.0" encoding="utf-8"?>
<!-- Generator: Adobe Illustrator 19.0.0, SVG Export Plug-In . SVG Version: 6.00 Build 0)  -->
<svg version="1.1" xmlns="http://www.w3.org/2000/svg" xmlns:xlink="http://www.w3.org/1999/xlink" x="0px" y="0px"
	 viewBox="0 0 500 500" style="enable-background:new 0 0 500 500;" xml:space="preserve">
<style type="text/css">
	.st0{fill:#26265E;}
	.st1{fill:#F8F8F8;}
	.st2{display:none;}
	.st3{display:inline;fill:#F8F8F8;stroke:#26265E;stroke-width:8;stroke-miterlimit:10;}
</style>
<g id="Layer_1">
	<g id="XMLID_1_">
		<path id="XMLID_109_" class="st0" d="M266.7,409.9c-43.3,0-86.6,0-130,0c-9.3,0-11-1.7-11-11.1c0-73.8-0.1-147.6,0-221.4
			c0.1-35.1,0.5-70.3,0.7-105.4c0-6.1,1.6-7.7,7.7-7.7c58.5,0,117-0.1,175.4,0.1c2.5,0,5.6,1.3,7.4,3.1c29.1,28.8,58.1,57.8,86.9,87
			c2.1,2.1,3.5,5.8,3.5,8.8c0.2,79,0.2,158,0.1,236.9c0,7.5-2.4,9.8-10,9.8C354,409.9,310.4,409.9,266.7,409.9z M305.1,77.5
			c-56,0-111.2,0-166.3,0c0,106.7,0,212.9,0,319.1c85.4,0,170.4,0,255.4,0c0-76.8,0-153.2,0-230.1c-2.1,0-3.9,0-5.7,0
			c-24.7,0-49.3,0-74,0c-7.8,0-9.3-1.5-9.3-9.4c0-24.7,0-49.3,0-74C305.1,81.3,305.1,79.5,305.1,77.5z M383.2,153.6
			c-21.7-21.7-43.7-43.6-65.5-65.5c0,0.5,0,1.6,0,2.7c0,19.3,0.1,38.6-0.1,57.9c-0.1,4.3,1.5,5.2,5.4,5.2c19-0.2,37.9-0.1,56.9-0.1
			C381.3,153.8,382.8,153.7,383.2,153.6z"/>
		<path id="XMLID_96_" class="st1" d="M305.1,77.5c0,2,0,3.8,0,5.6c0,24.7,0,49.3,0,74c0,7.9,1.5,9.4,9.3,9.4c24.7,0,49.3,0,74,0
			c1.8,0,3.6,0,5.7,0c0,76.9,0,153.3,0,230.1c-85,0-170,0-255.4,0c0-106.2,0-212.5,0-319.1C193.9,77.5,249.1,77.5,305.1,77.5z
			 M285.9,224.2c-25.1,0-50.3,0-75.4,0c-4.8,0-8.2,2.9-7.8,6.6c0.5,4.4,3.4,6.2,7.6,6.3c0.8,0,1.7,0,2.5,0c48.6,0,97.2,0,145.8,0
			c2.1,0,4.6,0.1,6.3-0.9c1.7-1.1,3.6-3.4,3.7-5.2c0.1-1.9-1.5-4.4-3.1-5.6c-1.5-1.1-4.1-1.1-6.2-1.1
			C334.8,224.1,310.3,224.2,285.9,224.2z M285.9,275.3c24.8,0,49.6,0,74.4,0c5.5,0,8.4-2.2,8.5-6.2c0.1-4.1-2.8-6.3-8.3-6.6
			c-0.7,0-1.3,0-2,0c-48.6,0-97.2,0-145.8,0c-1.8,0-4.1-0.3-5.3,0.6c-2,1.6-4.5,4.1-4.4,6.1c0.1,2,3,4.2,5.1,5.7
			c1.1,0.8,3.2,0.3,4.9,0.3C237.3,275.3,261.6,275.3,285.9,275.3z M285.9,301c-13.2,0-26.3,0-39.5,0c-12.2,0-24.3,0-36.5,0
			c-4.1,0-6.9,1.9-7.2,6c-0.3,4.2,2.5,6.2,6.5,6.8c1,0.1,2,0.1,3,0.1c48.9,0,97.9,0,146.8,0c1.5,0,3-0.1,4.4-0.4
			c3.6-0.8,5.6-3.1,5.2-6.8c-0.3-3.4-2.5-5.3-5.9-5.6c-1.5-0.1-3-0.1-4.5-0.1C334.1,301,310,301,285.9,301z M285.4,352.1
			c9.7,0,19.3,0,29,0c15.3,0,30.6,0,45.9,0c5.4,0,8.5-2.3,8.6-6.2c0.1-4.2-3-6.6-8.7-6.7c-0.5,0-1,0-1.5,0c-48.6,0-97.2,0-145.8,0
			c-1.8,0-4.1-0.4-5.3,0.6c-2,1.6-4.6,4.2-4.5,6.2c0.1,2.1,3,4.2,5,5.8c1,0.7,2.9,0.3,4.4,0.3C236.7,352.2,261,352.1,285.4,352.1z
			 M285.4,198.4c24.3,0,48.7,0,73,0c1.7,0,3.3,0,5-0.2c3.5-0.5,5.8-2.8,5.2-6.1c-0.5-2.3-2.8-4.4-4.8-5.9c-1.1-0.8-3.2-0.4-4.9-0.4
			c-48.7,0-97.3,0-146,0c-1.5,0-3,0-4.5,0.2c-3.8,0.4-5.8,2.9-5.6,6.4c0.1,3.3,2.1,5.6,5.7,5.9c1.7,0.1,3.3,0.1,5,0.1
			C237.4,198.4,261.4,198.4,285.4,198.4z M164.3,147.2c0,6.2,0,12.3,0,18.5c0,4.7,2.5,7.2,7,7.3c12.3,0.2,24.6,0.2,36.9,0
			c4.4-0.1,7.1-2.6,7.1-7.3c0-12.1,0.1-24.3,0-36.4c0-5.1-2.2-7.3-7.3-7.3c-12.1-0.1-24.3-0.1-36.4,0c-5.1,0-7.2,2.2-7.3,7.3
			C164.2,135.3,164.3,141.3,164.3,147.2z M177,236.9C177,236.9,177,236.9,177,236.9c2.3-0.1,4.7,0.2,7-0.1c3.5-0.6,5.7-2.7,5.6-6.5
			c-0.1-3.8-2.5-5.8-6-6c-4.3-0.3-8.7-0.3-13,0c-3.6,0.2-6,2.3-6.1,6c-0.1,4,2.4,6.1,6.1,6.6C172.6,237.2,174.8,236.9,177,236.9z
			 M177,352.1c2,0,4,0.1,6,0c3.7-0.3,6.3-2,6.5-6c0.2-4-2.2-6.3-5.9-6.6c-4.4-0.4-8.9-0.4-13.4,0c-3.7,0.4-6.1,2.7-5.8,6.7
			c0.2,3.7,2.6,5.6,6.2,5.9C172.7,352.3,174.9,352.1,177,352.1z M176.8,275.2C176.8,275.2,176.8,275.1,176.8,275.2
			c2.5,0,5.3,0.7,7.4-0.2c2.2-1,4.8-3.6,5-5.6c0.1-2-2.4-5.7-4.1-6c-5.2-0.8-10.6-0.9-15.8-0.1c-1.9,0.3-4.2,3.6-4.7,5.9
			c-0.6,3.3,1.8,5.6,5.3,6C172.1,275.4,174.5,275.2,176.8,275.2z M177.1,301.1C177.1,301.1,177.1,301.1,177.1,301.1
			c-2.2,0-4.3-0.1-6.5,0c-3.7,0.2-6,2.2-6.2,5.9c-0.3,3.8,2,6.2,5.5,6.5c4.8,0.4,9.6,0.4,14.4-0.1c3.6-0.3,5.5-2.9,5.2-6.7
			c-0.3-3.5-2.5-5.3-5.9-5.6C181.4,301,179.2,301.1,177.1,301.1z M177.2,186c-2.5,0-5-0.2-7.5,0.1c-3.5,0.4-5.4,2.6-5.4,6.1
			c0,3.4,1.9,5.8,5.3,6.1c4.8,0.3,9.6,0.3,14.4,0c3.4-0.2,5.3-2.5,5.3-6c0-3.5-1.9-5.7-5.3-6.1C181.9,185.8,179.6,186,177.2,186z"/>
		<path id="XMLID_95_" class="st1" d="M383.2,153.6c-0.5,0-1.9,0.2-3.3,0.2c-19,0-37.9-0.1-56.9,0.1c-4,0-5.5-0.8-5.4-5.2
			c0.2-19.3,0.1-38.6,0.1-57.9c0-1.1,0-2.2,0-2.7C339.5,110,361.5,131.9,383.2,153.6z"/>
		<path id="XMLID_94_" class="st0" d="M285.9,224.2c24.5,0,48.9,0,73.4,0c2.1,0,4.7,0,6.2,1.1c1.6,1.2,3.2,3.7,3.1,5.6
			c-0.1,1.9-1.9,4.2-3.7,5.2c-1.7,1-4.2,0.9-6.3,0.9c-48.6,0-97.2,0-145.8,0c-0.8,0-1.7,0-2.5,0c-4.2-0.1-7.1-1.9-7.6-6.3
			c-0.4-3.7,3-6.5,7.8-6.6C235.6,224.1,260.7,224.2,285.9,224.2z"/>
		<path id="XMLID_93_" class="st0" d="M285.9,275.3c-24.3,0-48.6,0-72.9,0c-1.7,0-3.8,0.5-4.9-0.3c-2.1-1.5-4.9-3.7-5.1-5.7
			c-0.1-2,2.4-4.6,4.4-6.1c1.2-1,3.5-0.6,5.3-0.6c48.6,0,97.2,0,145.8,0c0.7,0,1.3,0,2,0c5.5,0.2,8.4,2.5,8.3,6.6
			c-0.1,4-3,6.2-8.5,6.2C335.5,275.3,310.7,275.3,285.9,275.3z"/>
		<path id="XMLID_92_" class="st0" d="M285.9,301c24.1,0,48.3,0,72.4,0c1.5,0,3,0,4.5,0.1c3.4,0.3,5.6,2.2,5.9,5.6
			c0.4,3.7-1.6,6-5.2,6.8c-1.4,0.3-3,0.4-4.4,0.4c-48.9,0-97.9,0-146.8,0c-1,0-2,0-3-0.1c-4-0.5-6.8-2.6-6.5-6.8
			c0.3-4.1,3.1-6,7.2-6c12.2,0,24.3,0,36.5,0C259.6,301,272.7,301,285.9,301z"/>
		<path id="XMLID_91_" class="st0" d="M285.4,352.1c-24.3,0-48.6,0-72.9,0c-1.5,0-3.4,0.5-4.4-0.3c-2.1-1.6-4.9-3.8-5-5.8
			c-0.1-2,2.5-4.6,4.5-6.2c1.2-0.9,3.5-0.6,5.3-0.6c48.6,0,97.2,0,145.8,0c0.5,0,1,0,1.5,0c5.7,0.1,8.8,2.5,8.7,6.7
			c-0.1,4-3.1,6.2-8.6,6.2c-15.3,0-30.6,0-45.9,0C304.7,352.1,295,352.1,285.4,352.1z"/>
		<path id="XMLID_90_" class="st0" d="M285.4,198.4c-24,0-48,0-72,0c-1.7,0-3.3,0-5-0.1c-3.6-0.3-5.6-2.6-5.7-5.9
			c-0.1-3.5,1.9-6,5.6-6.4c1.5-0.2,3-0.2,4.5-0.2c48.7,0,97.3,0,146,0c1.7,0,3.8-0.5,4.9,0.4c2,1.5,4.4,3.7,4.8,5.9
			c0.6,3.2-1.7,5.6-5.2,6.1c-1.6,0.2-3.3,0.2-5,0.2C334.1,198.4,309.7,198.4,285.4,198.4z"/>
		<path id="XMLID_87_" class="st0" d="M164.3,147.2c0-6-0.1-12,0-18c0.1-5.1,2.1-7.3,7.3-7.3c12.1-0.1,24.3-0.1,36.4,0
			c5.1,0,7.3,2.3,7.3,7.3c0.1,12.1,0.1,24.3,0,36.4c0,4.7-2.7,7.2-7.1,7.3c-12.3,0.2-24.6,0.2-36.9,0c-4.5-0.1-7-2.6-7-7.3
			C164.3,159.5,164.3,153.4,164.3,147.2z M202.2,159.9c0-8.5,0-16.7,0-24.9c-8.5,0-16.6,0-24.9,0c0,8.5,0,16.6,0,24.9
			C185.6,159.9,193.7,159.9,202.2,159.9z"/>
		<path id="XMLID_86_" class="st0" d="M177,236.9c-2.2,0-4.4,0.2-6.5-0.1c-3.7-0.5-6.2-2.5-6.1-6.6c0.1-3.8,2.5-5.8,6.1-6
			c4.3-0.3,8.7-0.3,13,0c3.5,0.2,5.9,2.2,6,6c0.1,3.8-2,5.9-5.6,6.5C181.7,237.2,179.3,236.9,177,236.9
			C177,236.9,177,236.9,177,236.9z"/>
		<path id="XMLID_85_" class="st0" d="M177,352.1c-2.1,0-4.3,0.1-6.4,0c-3.6-0.3-5.9-2.2-6.2-5.9c-0.3-4,2.1-6.4,5.8-6.7
			c4.4-0.4,8.9-0.4,13.4,0c3.7,0.3,6.1,2.6,5.9,6.6c-0.2,4.1-2.8,5.8-6.5,6C181,352.2,179,352.1,177,352.1z"/>
		<path id="XMLID_84_" class="st0" d="M176.8,275.2c-2.3,0-4.7,0.2-7-0.1c-3.4-0.4-5.9-2.7-5.3-6c0.4-2.3,2.8-5.6,4.7-5.9
			c5.2-0.8,10.6-0.8,15.8,0.1c1.8,0.3,4.3,4,4.1,6c-0.1,2-2.8,4.6-5,5.6C182.2,275.9,179.3,275.1,176.8,275.2
			C176.8,275.1,176.8,275.2,176.8,275.2z"/>
		<path id="XMLID_83_" class="st0" d="M177.1,301.1c2.2,0,4.3-0.1,6.5,0c3.4,0.3,5.6,2.1,5.9,5.6c0.3,3.8-1.6,6.4-5.2,6.7
			c-4.8,0.5-9.6,0.5-14.4,0.1c-3.5-0.3-5.7-2.7-5.5-6.5c0.2-3.7,2.5-5.7,6.2-5.9C172.7,301,174.9,301.1,177.1,301.1
			C177.1,301.1,177.1,301.1,177.1,301.1z"/>
		<path id="XMLID_82_" class="st0" d="M177.2,186c2.3,0,4.7-0.2,7,0.1c3.4,0.4,5.3,2.6,5.3,6.1c0,3.5-1.9,5.8-5.3,6
			c-4.8,0.3-9.6,0.3-14.4,0c-3.5-0.2-5.3-2.6-5.3-6.1c0-3.4,1.9-5.7,5.4-6.1C172.2,185.8,174.7,186,177.2,186z"/>
		<path id="XMLID_81_" class="st1" d="M202.2,159.9c-8.5,0-16.6,0-24.9,0c0-8.3,0-16.4,0-24.9c8.2,0,16.4,0,24.9,0
			C202.2,143.2,202.2,151.4,202.2,159.9z"/>
	</g>
</g>
<g id="Layer_2">
	<g id="XMLID_2_" class="st2">
		<path id="XMLID_23_" class="st3" d="M106.6,230.6c0.1,0,0.2,0,0.3,0c0,11.4,0,22.9,0,34.4c0.7,0,1.1,0,1.6,0c19.4,0,38.7,0,58.1,0
			c0.6,0,1.2,0.1,1.8,0.1c0,16.2,0,32.5,0,48.7c-0.5,0-0.9,0.1-1.4,0.1c-19.4,0-38.9,0-58.3,0c-0.5,0-1.1,0-1.7,0
			c0,11.6,0,23,0,34.4c-0.1,0-0.2,0-0.3,0c-0.2-0.3-0.4-0.7-0.6-0.9c-2-2-4.1-4.1-6.1-6.1c-16.1-16-32.1-32.1-48.2-48.1
			c-1.2-1.2-2.5-2.3-3.8-3.5c0-0.2,0-0.3,0-0.5c0.4-0.3,0.9-0.6,1.3-1c4.9-4.8,9.7-9.7,14.5-14.5c13.5-13.5,27-27,40.5-40.5
			C105.1,232.4,105.8,231.5,106.6,230.6z"/>
	</g>
	<circle id="XMLID_3_" class="st1" cx="149.6" cy="370.1" r="69.6"/>
	<g id="XMLID_39_" transform="translate(0 -540.36)">
		<g id="XMLID_50_">
			<g id="XMLID_51_">
				<g id="XMLID_52_">
					<path id="XMLID_56_" class="st0" d="M181.5,930.1l-28.9-20.2v-34.7c0-1.6-1.3-3-3-3s-3,1.3-3,3v36.3c0,1,0.5,1.9,1.3,2.4
						l30.2,21.1c0.5,0.4,1.1,0.5,1.7,0.5l0,0c0.9,0,1.8-0.4,2.4-1.3C183.2,932.9,182.8,931,181.5,930.1z"/>
					<path id="XMLID_53_" class="st0" d="M200.9,860.1L200.9,860.1c-13.8-13.8-32-21.3-51.3-21.3s-37.6,7.6-51.3,21.3
						c-13.8,13.8-21.3,32-21.3,51.3s7.6,37.6,21.3,51.3s32,21.3,51.3,21.3s37.6-7.6,51.3-21.3s21.3-32,21.3-51.3
						S214.7,873.8,200.9,860.1z M152.6,978.1L152.6,978.1v-12.1c0-1.6-1.3-3-3-3s-3,1.3-3,3v12.1c-34.4-1.5-62.1-29.2-63.7-63.7
						h12.1c1.6,0,3-1.3,3-3s-1.3-3-3-3H83c1.5-34.4,29.2-62.1,63.7-63.7v12.1c0,1.6,1.3,3,3,3s3-1.3,3-3v-12.1
						c34.4,1.5,62.1,29.2,63.7,63.7h-12.1c-1.6,0-3,1.3-3,3s1.3,3,3,3h12.1C214.7,948.8,187,976.5,152.6,978.1z"/>
				</g>
			</g>
		</g>
	</g>
</g>
</svg>
