<?xml version="1.0" encoding="utf-8"?>
<!-- Generator: Adobe Illustrator 19.0.0, SVG Export Plug-In . SVG Version: 6.00 Build 0)  -->
<svg version="1.1" id="Layer_1" xmlns="http://www.w3.org/2000/svg" xmlns:xlink="http://www.w3.org/1999/xlink" x="0px" y="0px"
	 viewBox="0 0 500 500" style="enable-background:new 0 0 500 500;" xml:space="preserve">
<style type="text/css">
	.st0{fill:#E0E0E0;}
</style>
<g id="XMLID_1_">
	<path id="XMLID_24_" class="st0" d="M45.3,382.9c0.5-2.8,1-5.7,1.7-8.5c1.6-7.3,5.4-13.3,10.6-18.5c18.5-18.6,37-37.1,55.6-55.6
		c16.4-16.3,41-16.3,56.1-0.1c3.2,3.4,5.8,7.8,7.4,12.2c6.6,17.1,18.9,26,37,26.9c9.2,0.4,17.6-3,25.6-7.1
		c36.2-18.7,64.1-45.9,82.8-82.1c4.4-8.5,8.1-17.6,8.1-27.4c-0.1-15.8-8.3-26.8-22.1-34c-5.9-3.1-12.5-5.4-17.3-9.7
		c-15.3-13.6-16.5-37-3.3-52.7c2.7-3.2,5.7-6,8.6-9c14-14,28.2-27.8,41.9-42.1c9.2-9.6,19-17.5,32.4-19.9c3.7,0,7.5,0,11.2,0
		c12.3,2.4,21,10.2,29.3,18.9c9.4,9.8,19.2,19.3,28.9,28.9c6.5,6.4,11.2,14,13.3,22.9c1.4,6.1,2.2,12.3,3.2,18.4c0,1.6,0,3.2,0,4.8
		c-0.4,3.6-0.7,7.1-1.2,10.7c-3.3,23.8-11.5,46-22.1,67.4c-16.8,33.7-38.3,64.2-63,92.5c-39.3,45.2-83.7,84.4-135.8,114.5
		c-19.6,11.3-40,20.9-61.9,26.7c-8.2,2.1-16.6,3.5-25,5.3c-6.2,0-12.3,0-18.5,0c-0.6-0.2-1.2-0.6-1.8-0.7
		c-13.2-1.5-24.4-6.9-33.8-16.5c-11.4-11.7-23.1-23-34.5-34.7c-3.3-3.4-6.4-7.4-8.2-11.7c-2.4-5.8-3.5-12.2-5.2-18.3
		C45.3,384,45.3,383.4,45.3,382.9z"/>
</g>
</svg>
