<?xml version="1.0" encoding="utf-8"?>
<!-- Generator: Adobe Illustrator 19.0.0, SVG Export Plug-In . SVG Version: 6.00 Build 0)  -->
<svg version="1.1" id="Layer_1" xmlns="http://www.w3.org/2000/svg" xmlns:xlink="http://www.w3.org/1999/xlink" x="0px" y="0px"
	 viewBox="0 0 500 500" style="enable-background:new 0 0 500 500;" xml:space="preserve">
<style type="text/css">
	.st0{fill:#26265E;stroke:#F8F8F8;stroke-width:11;stroke-miterlimit:10;}
	.st1{fill:#E0E0E0;stroke:#F8F8F8;stroke-width:21;stroke-miterlimit:10;}
	.st2{fill:#26265E;stroke:#F8F8F8;stroke-width:8;stroke-miterlimit:10;}
</style>
<g id="XMLID_1_">
	<path id="XMLID_10_" class="st0" d="M385.3,187c0-0.1,0-0.1,0-0.2c-11,0.8-22.1,2-33,0.3h-59.6c0,4.5,0,8.6,0,12.7
		c0,9.1,0,18.2,0,27.4c-0.1,26.9-23.6,44.2-49.2,36.1c-0.5-0.1-0.9-0.3-1.3-0.4c-0.6,4.8-0.9,9.5-2,14c-4.1,16.7-19.6,27.9-37,27.2
		c-17.2-0.7-31.5-13.2-34.4-30c-0.5-2.7-0.7-5.5-0.7-8.2c0-24.7,0-49.5,0-74.2v-4.5h-41.5c-3.4,1.4-8.7-0.8-11.9-0.8
		c-6.4-0.1-12.8,1.1-19.2,0.8c-0.3,0-0.6-0.1-1-0.1c-4.3,0.1-8.4,0.6-11,4.5c-1.4,2-2.4,4.7-2.5,7.2c-0.3,4.1,1.7,7.8,5.5,9.4
		c3.3,1.4,7.1,1.7,11.1,2.6c1.2,12,2.5,24.4,3.8,36.7c1.9,18.2,3.8,36.5,5.7,54.7c1.9,18,3.7,36,5.6,54c1.9,18.2,3.8,36.5,5.7,54.7
		c0.5,4.6,1.1,9.2,1.3,13.8c0.3,6.1,3.1,10.3,8.7,12.7h225c5.7-2.4,8.2-6.7,8.7-12.7c1.4-15.5,3.1-31,4.7-46.5
		c1.9-18.4,3.8-36.7,5.7-55.1c1.9-18,3.7-36,5.5-54c2-19.6,4.1-39.2,6.1-59c5.3-0.1,10.8,0.3,14.1-4.5c1.4-2.1,2.4-5,2.4-7.6
		C400.7,190.9,395.9,187.7,385.3,187z"/>
	<path id="XMLID_32_" class="st1" d="M176.8,184.4c37.2,0,73.9,0,111.3,0c0,3.1,0,5.9,0,8.8c0,12.2,0.1,24.5,0,36.7
		c-0.1,9.2-8.2,16.2-19.2,16.6c-11.1,0.4-19.9-6.3-20.8-15.7c-0.7-7.9-7.4-12.9-16.6-12.7c-8.8,0.3-14.9,5.7-15,13.4
		c-0.1,13.8,0,27.5,0,41.3c0,9.6-8.6,16.8-19.9,16.9c-11.2,0.1-20.1-7.1-20.1-16.7c-0.1-28.6,0-57.2,0-85.9
		C176.5,186.3,176.7,185.5,176.8,184.4z"/>
</g>
<g id="XMLID_5_">
	<path id="XMLID_86_" class="st2" d="M443.9,301.6c-33.9-0.6-67.6-1.2-101.6-1.8c-0.9-5.5-1.8-11.4-2.7-17.2
		c-2.7-16.7-5.3-33.5-8-50.2c-0.8-5.1,1.1-7.4,6.3-7.3c3.6,0.1,7.1,0.2,10.7,0.2c1.7,0,2.3,0.5,2.8,2.2c2.4,9.5,5,19,7.6,28.5
		c0.9,3.3,3,5,5.8,4.6c2.5-0.4,3.6-2.1,4.3-4.3c2.5-8.4,5.1-16.7,7.6-25.1c1.3-4.3,2.5-5.2,7.1-5.1c6.2,0.1,12.4,0.2,18.6,0.3
		c4.6,0.1,6.5,2.1,6,6.7c-1.5,14-3,28.1-4.6,42.1c-0.3,2.3,0.1,4.5,2.2,5.4c1.5,0.6,3.8,0.9,5,0.1c1.3-0.9,2.4-3,2.6-4.7
		c1.4-11.7,2.6-23.4,3.9-35c0.3-3,0.6-6,1-9c0.4-3.5,2.3-5.3,5.8-5.2c9.2,0.1,18.4,0.3,27.6,0.5c4.2,0.1,6.3,2.6,5.5,6.6
		c-4.3,22.4-8.7,44.9-13.1,67.3C444,301.3,443.9,301.5,443.9,301.6z"/>
	<path id="XMLID_82_" class="st2" d="M446.8,313.1c0.4,1.7,1,3.1,1,4.5c-0.1,11.3-0.3,22.6-0.5,33.9c-0.1,4-2.1,5.6-6.5,5.5
		c-19.9-0.3-39.7-0.7-59.6-1c-12.4-0.2-24.8-0.4-37.2-0.6c-5.1-0.1-6.7-1.8-6.6-6.8c0.2-10.7,0.4-21.3,0.6-32
		c0.1-4.7,1.8-6.4,6.5-6.3c32.4,0.6,64.9,1.1,97.3,1.7C443.3,312,444.9,312.7,446.8,313.1z"/>
	<path id="XMLID_81_" class="st2" d="M380.5,366.1c7.7,0.1,15.3,0.3,23,0.4c-0.4,1.5-0.9,3.1-1.3,4.8c-1.9,8.7-0.5,17.2,1.7,25.6
		c2.3,8.7,4.9,17.3,6.5,26.2c2,10.7-4.9,18.2-15.9,18.1c-3.1,0-6.2,0-9.3-0.2c-9.2-0.6-15.6-8.4-13.9-17.4
		c1.1-5.6,2.7-11.1,4.2-16.6c0.8-3.1,2-6,3-9.1C382.7,384.6,383,379.2,380.5,366.1z"/>
</g>
</svg>
