<?xml version="1.0" encoding="utf-8"?>
<!-- Generator: Adobe Illustrator 19.0.0, SVG Export Plug-In . SVG Version: 6.00 Build 0)  -->
<svg version="1.1" id="Layer_1" xmlns="http://www.w3.org/2000/svg" xmlns:xlink="http://www.w3.org/1999/xlink" x="0px" y="0px"
	 viewBox="0 0 500 500" style="enable-background:new 0 0 500 500;" xml:space="preserve">
<style type="text/css">
	.st0{fill:#26265E;}
</style>
<g id="XMLID_2_">
	<path id="XMLID_27_" class="st0" d="M98.4,243c14.1-12.3,28.1-24.6,42.2-37c38.2-33.6,76.3-67.2,114.4-100.8
		c0.7-0.6,1.4-1.1,2.3-1.8c51.2,46.4,102.4,92.7,153.5,139c-4.1,6.5-11.1,9.3-18.6,7.6c-6.3-1.5-12-4.5-16.8-8.8
		C337,207,298.8,172.7,260.6,138.4c-1.1-0.9-2.1-1.9-3.5-3c-5.7,4.8-11.5,9.7-17.2,14.5c-36.6,30.9-73.1,61.9-109.8,92.7
		c-3.9,3.3-8.6,5.9-13.3,7.7c-6.5,2.6-12.3,0.3-17-4.9c-0.5-0.6-1.1-1.2-1.6-1.8C98.4,243.4,98.4,243.2,98.4,243z"/>
	<path id="XMLID_26_" class="st0" d="M279.5,379.7c0-1.5,0-2.7,0-3.9c0-19.6,0.1-39.3,0.1-58.9c0-7.9-3.4-11.7-11.4-11.8
		c-10.9-0.2-21.8-0.2-32.6,0c-6.2,0.1-9.2,3.3-9.2,9.6c-0.1,20.5-0.1,41.1-0.1,61.6c0,1.2,0,2.4,0,3.8c-1.5,0-2.6,0-3.7,0
		c-24.3,0-48.6,0-72.9,0c-6.8,0-8.8-2-8.8-8.6c0-38.9,0-77.9,0.1-116.8c0-1.3,0.7-3,1.7-3.9c37.3-31.4,74.6-62.6,111.9-93.9
		c0.5-0.4,1.1-0.8,1.8-1.4c8,7.1,16,14.2,24,21.3c27,24.1,54.1,48.1,81.2,72.1c2.6,2.3,3.6,4.5,3.6,8c-0.1,37.3-0.1,74.6-0.1,112
		c0,1.9-0.2,3.9-0.7,5.7c-0.8,2.9-2.9,4.6-5.9,5c-1.1,0.1-2.2,0.2-3.3,0.2c-24.2,0-48.4,0-72.6,0
		C281.6,379.9,280.8,379.8,279.5,379.7z"/>
	<path id="XMLID_3_" class="st0" d="M343.2,161.6c10.3,0,20.4,0.4,30.7,0.4c0,20.9,0,14.8,0,36c-0.9-0.6-1.6-1-2.2-1.5
		c-8.9-7.5-17.9-15.1-26.7-22.7c-0.9-0.8-1.8-2.3-1.8-3.5"/>
</g>
</svg>
