<?xml version="1.0" encoding="utf-8"?>
<!-- Generator: Adobe Illustrator 19.0.0, SVG Export Plug-In . SVG Version: 6.00 Build 0)  -->
<svg version="1.1" id="Layer_1" xmlns="http://www.w3.org/2000/svg" xmlns:xlink="http://www.w3.org/1999/xlink" x="0px" y="0px"
	 viewBox="0 0 500 500" style="enable-background:new 0 0 500 500;" xml:space="preserve">
<style type="text/css">
	.st0{fill:#26265E;}
</style>
<g id="XMLID_1_">
	<path id="XMLID_32_" class="st0" d="M64.7,335.6c1.8-1.6,3.6-3.1,5.4-4.8c55.6-53.7,111.1-107.4,166.7-161c0.8-0.7,1.6-1.5,2.6-2.4
		c10.4,9.1,20.8,18.1,31.3,27.3c-0.8,1-1.5,1.9-2.2,2.6c-54.3,58-108.6,116-162.8,174c-2.3,2.5-4.5,3.3-7.7,2.2
		c-15.8-5.3-26.3-16.1-32.6-31.3c-0.2-0.5-0.5-1-0.8-1.5C64.7,339,64.7,337.3,64.7,335.6z"/>
	<path id="XMLID_31_" class="st0" d="M404,392c8.2,0,15.9,0,23.6,0c7.7,0,9.1,1.4,9.1,9.1c0,9.4,0,18.9,0,28.3
		c0,4.9-2.2,7.1-7.1,7.1c-6.7,0.1-13.3,0-20,0c-107.2,0-214.4,0-321.6,0c-1.3,0-2.7,0.1-4-0.1c-3.4-0.4-5.5-2.6-5.6-6
		c-0.1-10.8-0.1-21.6,0-32.3c0-3.6,2-5.6,5.5-6c1.6-0.2,3.1-0.1,4.7-0.1c99.4,0,198.9,0,298.3,0c1.7,0,3.3,0,5.3,0
		c0-1.7,0-2.9,0-4.1c0-22.4,0-44.8,0.1-67.2c0-2.6-0.8-4.2-3-5.6c-3.6-2.2-7-4.8-10.5-7.2c-2.6-1.7-3.9-4.1-3.1-7.1
		c0.9-3.1,3.4-4.3,6.4-4.3c10.5,0,21.1,0,31.6,0c3,0,5.5,1.2,6.5,4.2c1,3.1-0.5,5.4-2.9,7.1c-3.9,2.7-7.8,5.3-11.6,8.1
		c-0.8,0.6-1.8,1.8-1.8,2.8C404,343,404,367.2,404,392z"/>
	<path id="XMLID_30_" class="st0" d="M336.3,173.5c-9.5-7.6-19.9-7.1-30.4-4.6c-4.8,1.1-9.3,3.3-14.1,4.7c-1.2,0.4-3.1,0.1-4-0.6
		c-8.4-7.5-16.6-15.2-25-22.7c-1.5-1.3-1.5-2.4-0.6-4c4.1-8,7.9-16,12-23.9c1.7-3.2,1.5-6.1-0.3-9.2c-10.6-18.3-27.1-28.1-47.2-32.5
		c-3.1-0.7-6.3-1.1-10.1-1.8c8.2-4.5,16.3-6.8,24.9-7.7c24.5-2.6,46.9,4.3,68.1,15.8c9.4,5.1,18.2,11,25.5,18.9
		c1.5,1.7,3.1,3.5,4.2,5.5c7,13.3,14.2,26.4,24.4,38C354.6,157.4,345.5,165.4,336.3,173.5z"/>
	<path id="XMLID_29_" class="st0" d="M352.3,195.6c9.9-8.8,19.5-17.3,29.4-26c4.7,5.4,9.3,10.6,14.1,16
		c-10.2,8.7-20.1,17.1-30.4,25.9C361.1,206.2,356.8,201,352.3,195.6z"/>
</g>
</svg>
