<?xml version="1.0" encoding="utf-8"?>
<!-- Generator: Adobe Illustrator 19.0.0, SVG Export Plug-In . SVG Version: 6.00 Build 0)  -->
<svg version="1.1" id="Layer_1" xmlns="http://www.w3.org/2000/svg" xmlns:xlink="http://www.w3.org/1999/xlink" x="0px" y="0px"
	 viewBox="0 0 500 500" style="enable-background:new 0 0 500 500;" xml:space="preserve">
<style type="text/css">
	.st0{fill:#F8F8F8;}
	.st1{fill:#26265E;}
</style>
<g id="XMLID_1_">
	<path id="XMLID_83_" class="st0" d="M79.3,330.1c0-9.6,0-19.2,0-28.7c16.8-16.7,33.5-33.5,50.3-50.2c0.1-0.1,0.1-0.4,0-0.1
		c-16.9-17.1-33.6-34-50.3-51c0-9.6,0-19.2,0-28.7c0.9,0.8,1.9,1.6,2.8,2.5c19.9,19.9,39.8,39.8,59.7,59.8c0.9,0.9,1.4,2.1,1.9,2.8
		c14.1-14.1,27.4-27.4,40.9-40.9c-0.5-0.5-1.1-1.3-1.8-2C149.1,159.7,115.4,126,81.7,92.3c-0.7-0.7-1.6-1.2-2.4-1.8c0-5,0-10,0-15.1
		c5,0,10,0,15.1,0c0.6,0.8,1.1,1.7,1.8,2.4c15.4,15.5,30.9,30.9,46.4,46.4c0.6,0.6,1.3,1.2,2,1.8c0.4-0.3,0.7-0.4,0.9-0.7
		c16.3-16.3,32.5-32.5,48.8-48.8c0.3-0.3,0.5-0.7,0.7-1.1c9.6,0,19.2,0,28.7,0c-3.2,3.5-6.4,6.9-9.1,9.9c13.6,13.6,26.9,26.9,40,40
		c16.7-16.5,33.6-33.2,50.5-49.9c9.6,0,19.2,0,28.7,0c-0.8,0.9-1.6,1.9-2.5,2.8c-19.9,19.9-39.8,39.8-59.8,59.7
		c-0.9,0.9-2.1,1.4-2.8,1.9c14.1,14.1,27.4,27.4,40.9,40.9c0.5-0.4,1.2-1,1.8-1.6c33.9-33.9,67.7-67.7,101.6-101.6
		c0.6-0.6,1-1.4,1.5-2.1c5.2,0,10.5,0,15.7,0c0,117,0,234.1,0,351.1c-117,0-234.1,0-351.1,0c0-5.2,0-10.5,0-15.7
		c0.9-0.7,1.8-1.2,2.6-2c15.3-15.3,30.6-30.6,45.9-45.9c0.7-0.7,1.4-1.5,1.7-1.8c-13.5-13.5-26.9-26.9-40.4-40.4
		C86,323.7,82.7,326.9,79.3,330.1z M294.3,195.7c-31.6-31.6-63.3-63.3-94.8-94.7c-13.2,13.2-26.5,26.5-39.5,39.5
		c31.5,31.5,63.2,63.3,94.7,94.8C267.8,222.2,281.2,208.8,294.3,195.7z M309.5,290.4c31.5-31.5,63.3-63.2,94.4-94.4
		c-13.2-13.2-26.6-26.6-39.6-39.6c-31.3,31.3-62.9,62.9-94.4,94.4C283,263.9,296.4,277.3,309.5,290.4z M144.3,345.2
		c31.5-31.5,63.2-63.2,94.8-94.8c-13-13-26.4-26.4-39.5-39.5c-31.6,31.6-63.3,63.3-94.8,94.8C118,318.9,131.4,332.2,144.3,345.2z
		 M348.9,360.9c-31.5-31.5-63.2-63.2-94.6-94.6c-13,13-26.4,26.4-39.3,39.3c31.5,31.5,63.2,63.2,94.6,94.6
		C322.7,387.1,336.1,373.7,348.9,360.9z M429.7,410.8c0-1.1,0-1.7,0-2.4c0-25.2,0-50.4-0.1-75.6c0-1.5-0.9-3.3-1.9-4.3
		c-20.3-20.5-40.8-40.9-61.2-61.3c-0.6-0.6-1.3-1.2-1.4-1.3c-13.5,13.5-26.9,26.9-40.2,40.2C359.5,340.6,394.4,375.5,429.7,410.8z
		 M199.8,321c-34.9,34.9-69.9,69.9-104.8,104.8c0.3,0,1,0.1,1.6,0.1c25.3,0,50.6,0,75.9-0.1c1.5,0,3.2-0.9,4.3-2
		c20.4-20.2,40.7-40.6,61-60.9c0.7-0.7,1.4-1.5,1.9-2C226.2,347.4,212.9,334.1,199.8,321z M429.5,300.5c0-33.2,0-66.5,0-99.5
		c-16.7,16.7-33.3,33.3-49.7,49.8C396.2,267.2,412.8,283.8,429.5,300.5z M304.1,425.7c-16.6-16.6-33.3-33.3-49.7-49.6
		c-16.3,16.3-33,33-49.6,49.6C237.9,425.7,271.2,425.7,304.1,425.7z M380,140.7c13.2,13.2,26.5,26.5,40.1,40.1
		c2.3-2.3,4.7-5,7.4-7.5c1.6-1.5,2.3-3.1,2.3-5.3c-0.1-24.7-0.1-49.5-0.1-74.2c0-1,0-1.9,0-2.8C413,107.8,396.3,124.4,380,140.7z
		 M324.2,416.1c2.7,2.6,5.3,5.4,8.1,7.8c1.2,1,3.1,1.9,4.7,1.9c24.8,0.1,49.7,0.1,74.5,0.1c1,0,1.9-0.1,2.7-0.2
		c-16.8-16.8-33.4-33.4-49.9-49.8C351.3,389,337.9,402.4,324.2,416.1z"/>
	<path id="XMLID_82_" class="st1" d="M414.7,75.5c-0.5,0.7-0.9,1.5-1.5,2.1c-33.8,33.9-67.7,67.7-101.6,101.6
		c-0.6,0.6-1.3,1.2-1.8,1.6c-13.5-13.5-26.9-26.9-40.9-40.9c0.7-0.5,2-1,2.8-1.9c19.9-19.9,39.9-39.8,59.8-59.7
		c0.9-0.9,1.7-1.9,2.5-2.8C360.8,75.5,387.8,75.5,414.7,75.5z"/>
	<path id="XMLID_81_" class="st1" d="M79.3,90.5c0.8,0.6,1.7,1.1,2.4,1.8c33.7,33.7,67.4,67.4,101.1,101.1c0.7,0.7,1.3,1.5,1.8,2
		c-13.5,13.5-26.9,26.9-40.9,40.9c-0.5-0.7-1-2-1.9-2.8c-19.9-19.9-39.8-39.9-59.7-59.8c-0.9-0.9-1.9-1.7-2.8-2.5
		C79.3,144.4,79.3,117.4,79.3,90.5z"/>
	<path id="XMLID_80_" class="st1" d="M79.3,200c16.7,16.9,33.4,33.9,50.3,51c0.1-0.3,0.1,0,0,0.1c-16.8,16.7-33.5,33.5-50.3,50.2
		C79.3,267.6,79.3,233.8,79.3,200z"/>
	<path id="XMLID_79_" class="st1" d="M195,75.5c-0.2,0.4-0.4,0.8-0.7,1.1c-16.3,16.3-32.5,32.5-48.8,48.8c-0.2,0.2-0.5,0.4-0.9,0.7
		c-0.7-0.6-1.4-1.2-2-1.8c-15.5-15.5-30.9-30.9-46.4-46.4c-0.7-0.7-1.2-1.6-1.8-2.4C127.9,75.5,161.4,75.5,195,75.5z"/>
	<path id="XMLID_78_" class="st1" d="M305.2,75.5c-16.9,16.7-33.9,33.4-50.5,49.9c-13.1-13.1-26.4-26.4-40-40c2.7-3,5.9-6.4,9.1-9.9
		C250.9,75.5,278,75.5,305.2,75.5z"/>
	<path id="XMLID_77_" class="st1" d="M79.3,330.1c3.4-3.2,6.7-6.4,9.8-9.3c13.5,13.5,26.9,26.9,40.4,40.4c-0.3,0.3-1,1.1-1.7,1.8
		c-15.3,15.3-30.6,30.6-45.9,45.9c-0.8,0.8-1.7,1.3-2.6,2C79.3,383.9,79.3,357,79.3,330.1z"/>
	<path id="XMLID_76_" class="st1" d="M294.3,195.7c-13.1,13.1-26.4,26.4-39.5,39.5c-31.5-31.5-63.2-63.2-94.7-94.8
		c13-13,26.3-26.3,39.5-39.5C231,132.4,262.7,164.2,294.3,195.7z"/>
	<path id="XMLID_75_" class="st1" d="M309.5,290.4c-13.1-13.1-26.5-26.5-39.6-39.6c31.5-31.5,63.1-63.1,94.4-94.4
		c12.9,12.9,26.4,26.4,39.6,39.6C372.8,227.2,341.1,258.9,309.5,290.4z"/>
	<path id="XMLID_74_" class="st1" d="M144.3,345.2c-13-13-26.3-26.3-39.5-39.5c31.5-31.5,63.2-63.2,94.8-94.8
		c13.1,13.1,26.5,26.4,39.5,39.5C207.6,281.9,175.9,313.7,144.3,345.2z"/>
	<path id="XMLID_73_" class="st1" d="M348.9,360.9c-12.8,12.8-26.2,26.2-39.3,39.3c-31.4-31.4-63.1-63.1-94.6-94.6
		c12.9-12.9,26.3-26.3,39.3-39.3C285.7,297.7,317.4,329.4,348.9,360.9z"/>
	<path id="XMLID_72_" class="st1" d="M429.7,410.8C394.4,375.5,359.5,340.6,325,306c13.2-13.2,26.6-26.6,40.2-40.2
		c0.1,0.1,0.8,0.7,1.4,1.3c20.4,20.4,40.8,40.8,61.2,61.3c1.1,1.1,1.9,2.9,1.9,4.3c0.1,25.2,0.1,50.4,0.1,75.6
		C429.7,409.1,429.7,409.8,429.7,410.8z"/>
	<path id="XMLID_71_" class="st1" d="M199.8,321c13.1,13.1,26.4,26.4,39.9,39.9c-0.5,0.5-1.2,1.3-1.9,2
		c-20.3,20.3-40.6,40.6-61,60.9c-1.1,1.1-2.9,2-4.3,2c-25.3,0.1-50.6,0.1-75.9,0.1c-0.6,0-1.3-0.1-1.6-0.1
		C129.9,390.9,164.9,355.9,199.8,321z"/>
	<path id="XMLID_70_" class="st1" d="M429.5,300.5c-16.7-16.7-33.3-33.3-49.7-49.7c16.4-16.5,33.1-33.1,49.7-49.8
		C429.5,234,429.5,267.2,429.5,300.5z"/>
	<path id="XMLID_69_" class="st1" d="M304.1,425.7c-33,0-66.2,0-99.2,0c16.6-16.6,33.2-33.2,49.6-49.6
		C270.8,392.4,287.5,409.1,304.1,425.7z"/>
	<path id="XMLID_68_" class="st1" d="M380,140.7c16.3-16.3,32.9-32.9,49.7-49.7c0,0.8,0,1.8,0,2.8c0,24.7,0,49.5,0.1,74.2
		c0,2.3-0.7,3.8-2.3,5.3c-2.6,2.5-5.1,5.2-7.4,7.5C406.5,167.2,393.2,153.8,380,140.7z"/>
	<path id="XMLID_67_" class="st1" d="M324.2,416.1c13.7-13.7,27.1-27.1,40.3-40.2c16.4,16.4,33.1,33.1,49.9,49.8
		c-0.8,0.1-1.8,0.2-2.7,0.2c-24.8,0-49.7,0-74.5-0.1c-1.6,0-3.4-0.9-4.7-1.9C329.5,421.5,326.9,418.7,324.2,416.1z"/>
</g>
</svg>
